<svg width="416" height="152" viewBox="0 0 416 152" fill="none" xmlns="http://www.w3.org/2000/svg">
<rect width="416" height="152" fill="white"/>
<path d="M59.875 45.4843L72.0737 57.6831C74.5124 55.1549 77.4326 53.1406 80.6622 51.7591C83.8918 50.3777 87.3653 49.6569 90.8779 49.6394C94.3906 49.622 97.8711 50.3081 101.114 51.6574C104.357 53.0067 107.298 54.9918 109.761 57.4956L121.949 45.2912C117.883 41.1895 113.043 37.9371 107.709 35.7233C102.374 33.5095 96.6534 32.3784 90.8783 32.3958C85.1031 32.4133 79.389 33.5789 74.0684 35.8249C68.7478 38.0709 63.927 41.3525 59.8862 45.4787L59.875 45.4843Z" fill="#F0432C"/>
<path d="M60.0344 106.705L72.2219 94.5175C69.784 92.0609 67.8546 89.1475 66.5443 85.9442C65.234 82.7408 64.5685 79.3105 64.5859 75.8495C64.6033 72.3886 65.3033 68.9651 66.6458 65.7751C67.9883 62.5851 69.9469 59.6913 72.4094 57.2594L60.2144 45.0625C56.1508 49.0963 52.9222 53.8916 50.7133 59.1742C48.5044 64.4567 47.3584 70.1229 47.341 75.8486C47.3236 81.5744 48.4351 87.2474 50.6118 92.5433C52.7886 97.8392 55.9879 102.654 60.0269 106.712L60.0344 106.705Z" fill="#FFBF00"/>
<path d="M99.6213 84.595V84.775H99.8013L99.6213 84.595Z" fill="#24AA49"/>
<path d="M90.9062 119.539C96.6397 119.547 102.318 118.419 107.613 116.221C112.909 114.023 117.716 110.798 121.759 106.733L109.562 94.5325C107.118 96.9917 104.211 98.9434 101.009 100.275C97.8074 101.607 94.3739 102.292 90.9062 102.292C87.4386 102.292 84.0051 101.607 80.8034 100.275C77.6016 98.9434 74.6948 96.9917 72.25 94.5325L60.0625 106.72C64.1033 110.787 68.9091 114.013 74.2028 116.213C79.4966 118.413 85.1735 119.544 90.9062 119.539Z" fill="#24AA49"/>
<path d="M133.818 67.4369L99.8013 67.4838V84.775H115.896C114.564 88.5151 112.405 91.9062 109.579 94.6956L121.776 106.894C126.883 101.822 130.655 95.5637 132.756 88.679C134.857 81.7943 135.222 74.4967 133.818 67.4369Z" fill="#3384FC"/>
<path d="M166.5 56L170.878 69.4742H185.046L173.584 77.8017L177.962 91.2758L166.5 82.9483L155.038 91.2758L159.416 77.8017L147.954 69.4742H162.122L166.5 56Z" fill="#FFBF00"/>
<path d="M213.5 56L217.878 69.4742H232.046L220.584 77.8017L224.962 91.2758L213.5 82.9483L202.038 91.2758L206.416 77.8017L194.954 69.4742H209.122L213.5 56Z" fill="#FFBF00"/>
<path d="M260.5 56L264.878 69.4742H279.046L267.584 77.8017L271.962 91.2758L260.5 82.9483L249.038 91.2758L253.416 77.8017L241.954 69.4742H256.122L260.5 56Z" fill="#FFBF00"/>
<path d="M307.5 56L311.878 69.4742H326.046L314.584 77.8017L318.962 91.2758L307.5 82.9483L296.038 91.2758L300.416 77.8017L288.954 69.4742H303.122L307.5 56Z" fill="#FFBF00"/>
<path d="M354.5 56L358.878 69.4742H373.046L361.584 77.8017L365.962 91.2758L354.5 82.9483L343.038 91.2758L347.416 77.8017L335.954 69.4742H350.122L354.5 56Z" fill="#FFBF00"/>
<rect y="147" width="416" height="5" fill="#FFBF00"/>
</svg>
