<?xml version="1.0" encoding="UTF-8"?>
<svg id="Layer_2" data-name="Layer 2" xmlns="http://www.w3.org/2000/svg" viewBox="0 0 547.54 319.95">
  <defs>
    <style>
      .cls-1, .cls-2, .cls-3, .cls-4, .cls-5, .cls-6 {
        fill: none;
      }

      .cls-1, .cls-2, .cls-5 {
        stroke: #103349;
      }

      .cls-1, .cls-3, .cls-4, .cls-6 {
        stroke-linecap: round;
        stroke-linejoin: round;
      }

      .cls-7 {
        fill: #02684d;
      }

      .cls-8 {
        fill: #046f77;
      }

      .cls-9 {
        fill: #025640;
      }

      .cls-10 {
        fill: #018595;
      }

      .cls-11 {
        fill: #008162;
      }

      .cls-12 {
        fill: #f1c829;
      }

      .cls-13 {
        fill: #f1ad14;
      }

      .cls-14 {
        fill: #e3c032;
      }

      .cls-15, .cls-16 {
        fill: #fff;
      }

      .cls-17 {
        fill: #ffdd52;
      }

      .cls-18 {
        fill: #7dcccb;
      }

      .cls-19 {
        fill: #7bcbca;
      }

      .cls-20 {
        fill: #72afb2;
      }

      .cls-21 {
        fill: #baf1e7;
      }

      .cls-22 {
        fill: #a6d4d9;
      }

      .cls-23 {
        fill: #e19e33;
      }

      .cls-24 {
        fill: #103349;
      }

      .cls-25 {
        fill: #215468;
      }

      .cls-26 {
        fill: #13b68b;
      }

      .cls-27 {
        fill: #1a4c66;
      }

      .cls-28 {
        fill: #6ee97d;
      }

      .cls-29 {
        fill: #39b44c;
      }

      .cls-30 {
        fill: #3b82a2;
      }

      .cls-2 {
        stroke-width: 1.06px;
      }

      .cls-2, .cls-5 {
        stroke-miterlimit: 10;
      }

      .cls-3, .cls-4 {
        stroke-width: .5px;
      }

      .cls-3, .cls-6 {
        stroke: #e3c032;
      }

      .cls-4 {
        stroke: #0f758b;
      }

      .cls-6 {
        stroke-width: .84px;
      }

      .cls-16 {
        opacity: .5;
      }
    </style>
  </defs>
  <g id="Layer_1-2" data-name="Layer 1">
    <g>
      <path class="cls-10" d="M474.96,232.12l-6.17-5.4c-14.73-12.89-33.63-20-53.2-20h-36.5c-17.68,0-34.88-5.8-48.95-16.52h0c-14.07-10.71-31.26-16.52-48.95-16.52H119.41c-17.26,0-33.81-6.86-46.01-19.06h0c-12.2-12.2-28.75-19.06-46.01-19.06H12.92s0,107.57,0,107.57H483.6s-8.64-11.02-8.64-11.02Z"/>
      <g>
        <line class="cls-1" x1="16.78" y1="282.6" x2="12.33" y2="282.6"/>
        <line class="cls-1" x1="11.56" y1="279.3" x2="7.11" y2="279.3"/>
      </g>
      <path class="cls-21" d="M85.26,237.01c0-120.23,97.46-217.69,217.69-217.69s217.69,97.46,217.69,217.69"/>
      <g>
        <polygon class="cls-11" points="499.07 49.81 503.23 63.83 507.39 77.86 499.07 77.86 490.76 77.86 494.91 63.83 499.07 49.81"/>
        <rect class="cls-13" x="498.16" y="75.13" width="1.83" height="6.52"/>
      </g>
      <g>
        <circle class="cls-19" cx="133.17" cy="238.37" r="61.27"/>
        <circle class="cls-19" cx="206.77" cy="200.63" r="61.27"/>
        <circle class="cls-19" cx="297.85" cy="166.51" r="61.27"/>
      </g>
      <path class="cls-25" d="M302.74,164.09l22.71-27.63c28.52-34.7,71.08-54.81,116-54.81h94.14v95.49h-207.15l-25.71-13.05Z"/>
      <path class="cls-29" d="M241.84,195.38l12.58-16.87c11.05-14.82,28.46-23.55,46.95-23.55h90.38c19.3,0,37.35-9.51,48.28-25.41h0c10.92-15.91,28.98-25.41,48.28-25.41h47.3v87.62l-293.76,3.62Z"/>
      <circle class="cls-29" cx="196.69" cy="200.6" r="13.03"/>
      <circle class="cls-29" cx="218.55" cy="195.38" r="18.24"/>
      <path class="cls-10" d="M73.56,232.12l6.17-5.4c14.73-12.89,33.63-20,53.2-20h36.5c17.68,0,34.88-5.8,48.95-16.52h0c14.07-10.71,31.26-16.52,48.95-16.52h161.79c17.26,0,33.81-6.86,46.01-19.06h0c12.2-12.2,28.75-19.06,46.01-19.06h14.47v107.57H64.92l8.64-11.02Z"/>
      <path class="cls-10" d="M73.75,232.12l6.17-5.4c14.73-12.89,33.63-20,53.2-20h36.5c17.68,0,34.88-5.8,48.95-16.52h0c14.07-10.71,31.26-16.52,48.95-16.52h161.79c17.26,0,33.81-6.86,46.01-19.06h0c12.2-12.2,28.75-19.06,46.01-19.06h14.47v107.57H65.11l8.64-11.02Z"/>
      <polygon class="cls-21" points="535.79 314.33 11.94 314.33 11.94 230.46 303.32 230.46 535.79 230.46 535.79 314.33"/>
      <g>
        <g>
          <g>
            <path class="cls-11" d="M17.87,314.33c0-5.2,4.21-9.41,9.41-9.41s9.41,4.21,9.41,9.41"/>
            <path class="cls-11" d="M36.69,314.33c0-5.2,4.21-9.41,9.41-9.41s9.41,4.21,9.41,9.41"/>
            <path class="cls-11" d="M55.51,314.33c0-5.2,4.21-9.41,9.41-9.41s9.41,4.21,9.41,9.41"/>
            <path class="cls-11" d="M74.34,314.33c0-5.2,4.21-9.41,9.41-9.41s9.41,4.21,9.41,9.41"/>
          </g>
          <g>
            <path class="cls-11" d="M93.16,314.33c0-5.2,4.21-9.41,9.41-9.41s9.41,4.21,9.41,9.41"/>
            <path class="cls-11" d="M111.98,314.33c0-5.2,4.21-9.41,9.41-9.41s9.41,4.21,9.41,9.41"/>
            <path class="cls-11" d="M130.81,314.33c0-5.2,4.21-9.41,9.41-9.41s9.41,4.21,9.41,9.41"/>
            <path class="cls-11" d="M149.63,314.33c0-5.2,4.21-9.41,9.41-9.41s9.41,4.21,9.41,9.41"/>
          </g>
        </g>
        <g>
          <g>
            <g>
              <path class="cls-11" d="M168.45,314.33c0-5.2,4.21-9.41,9.41-9.41s9.41,4.21,9.41,9.41"/>
              <path class="cls-11" d="M187.28,314.33c0-5.2,4.21-9.41,9.41-9.41s9.41,4.21,9.41,9.41"/>
              <path class="cls-11" d="M206.1,314.33c0-5.2,4.21-9.41,9.41-9.41s9.41,4.21,9.41,9.41"/>
              <path class="cls-11" d="M224.92,314.33c0-5.2,4.21-9.41,9.41-9.41s9.41,4.21,9.41,9.41"/>
            </g>
            <g>
              <path class="cls-11" d="M243.75,314.33c0-5.2,4.21-9.41,9.41-9.41s9.41,4.21,9.41,9.41"/>
              <path class="cls-11" d="M262.57,314.33c0-5.2,4.21-9.41,9.41-9.41s9.41,4.21,9.41,9.41"/>
              <path class="cls-11" d="M281.39,314.33c0-5.2,4.21-9.41,9.41-9.41s9.41,4.21,9.41,9.41"/>
              <path class="cls-11" d="M300.22,314.33c0-5.2,4.21-9.41,9.41-9.41s9.41,4.21,9.41,9.41"/>
            </g>
          </g>
          <g>
            <g>
              <path class="cls-11" d="M319.04,314.33c0-5.2,4.21-9.41,9.41-9.41s9.41,4.21,9.41,9.41"/>
              <path class="cls-11" d="M337.86,314.33c0-5.2,4.21-9.41,9.41-9.41s9.41,4.21,9.41,9.41"/>
              <path class="cls-11" d="M356.69,314.33c0-5.2,4.21-9.41,9.41-9.41s9.41,4.21,9.41,9.41"/>
              <path class="cls-11" d="M375.51,314.33c0-5.2,4.21-9.41,9.41-9.41s9.41,4.21,9.41,9.41"/>
            </g>
            <g>
              <path class="cls-11" d="M394.33,314.33c0-5.2,4.21-9.41,9.41-9.41s9.41,4.21,9.41,9.41"/>
              <path class="cls-11" d="M413.16,314.33c0-5.2,4.21-9.41,9.41-9.41s9.41,4.21,9.41,9.41"/>
              <path class="cls-11" d="M431.98,314.33c0-5.2,4.21-9.41,9.41-9.41s9.41,4.21,9.41,9.41"/>
              <path class="cls-11" d="M450.81,314.33c0-5.2,4.21-9.41,9.41-9.41s9.41,4.21,9.41,9.41"/>
            </g>
          </g>
          <g>
            <path class="cls-11" d="M469.63,314.33c0-5.2,4.21-9.41,9.41-9.41s9.41,4.21,9.41,9.41"/>
            <path class="cls-11" d="M488.45,314.33c0-5.2,4.21-9.41,9.41-9.41s9.41,4.21,9.41,9.41"/>
            <path class="cls-11" d="M507.28,314.33c0-5.2,4.21-9.41,9.41-9.41s9.41,4.21,9.41,9.41"/>
          </g>
          <rect class="cls-29" x="6.38" y="312.05" width="534.78" height="7.91"/>
        </g>
      </g>
      <g>
        <g>
          <path class="cls-11" d="M284.13,173.69c0-5.2,4.21-9.41,9.41-9.41s9.41,4.21,9.41,9.41"/>
          <path class="cls-11" d="M302.95,173.69c0-5.2,4.21-9.41,9.41-9.41s9.41,4.21,9.41,9.41"/>
          <path class="cls-11" d="M321.78,173.69c0-5.2,4.21-9.41,9.41-9.41s9.41,4.21,9.41,9.41"/>
          <path class="cls-11" d="M340.6,173.69c0-5.2,4.21-9.41,9.41-9.41s9.41,4.21,9.41,9.41"/>
        </g>
        <g>
          <path class="cls-11" d="M359.42,173.69c0-5.2,4.21-9.41,9.41-9.41s9.41,4.21,9.41,9.41"/>
          <path class="cls-11" d="M378.25,173.69c0-5.2,4.21-9.41,9.41-9.41s9.41,4.21,9.41,9.41"/>
          <path class="cls-11" d="M397.07,173.69c0-5.2,4.21-9.41,9.41-9.41s9.41,4.21,9.41,9.41"/>
          <path class="cls-11" d="M415.89,173.69c0-5.2,4.21-9.41,9.41-9.41s9.41,4.21,9.41,9.41"/>
        </g>
      </g>
      <path class="cls-24" d="M74.1,220.4c2.96-2.86,7.66-2.86,10.62,0l6.09,5.89,11.39,11.02H56.62l11.39-11.02,6.09-5.89Z"/>
      <g>
        <line class="cls-4" x1="271.98" y1="173.98" x2="271.98" y2="193.93"/>
        <line class="cls-4" x1="274.41" y1="173.98" x2="274.41" y2="201.18"/>
        <line class="cls-4" x1="271.98" y1="196.15" x2="271.98" y2="198.69"/>
      </g>
      <g>
        <line class="cls-4" x1="261.33" y1="230.18" x2="261.33" y2="210.22"/>
        <line class="cls-4" x1="258.9" y1="230.18" x2="258.9" y2="202.98"/>
        <line class="cls-4" x1="261.33" y1="208" x2="261.33" y2="205.46"/>
      </g>
      <g>
        <line class="cls-4" x1="387.64" y1="230.18" x2="387.64" y2="210.22"/>
        <line class="cls-4" x1="385.21" y1="230.18" x2="385.21" y2="202.98"/>
        <line class="cls-4" x1="387.64" y1="208" x2="387.64" y2="205.46"/>
      </g>
      <g>
        <line class="cls-4" x1="519.23" y1="136.16" x2="519.23" y2="156.11"/>
        <line class="cls-4" x1="521.66" y1="136.16" x2="521.66" y2="163.36"/>
        <line class="cls-4" x1="519.23" y1="158.34" x2="519.23" y2="160.88"/>
      </g>
      <g>
        <line class="cls-4" x1="477.9" y1="152.5" x2="477.9" y2="172.45"/>
        <line class="cls-4" x1="480.33" y1="150.5" x2="480.33" y2="179.7"/>
        <line class="cls-4" x1="477.9" y1="174.67" x2="477.9" y2="177.21"/>
      </g>
      <g>
        <line class="cls-4" x1="525" y1="230.08" x2="525" y2="210.12"/>
        <line class="cls-4" x1="522.57" y1="230.08" x2="522.57" y2="202.88"/>
        <line class="cls-4" x1="525" y1="207.9" x2="525" y2="205.36"/>
      </g>
      <g>
        <line class="cls-4" x1="530.27" y1="230.08" x2="530.27" y2="210.12"/>
        <line class="cls-4" x1="527.84" y1="230.08" x2="527.84" y2="202.88"/>
        <line class="cls-4" x1="530.27" y1="207.9" x2="530.27" y2="205.36"/>
      </g>
      <g>
        <g>
          <line class="cls-4" x1="247.26" y1="230.18" x2="247.26" y2="210.22"/>
          <line class="cls-4" x1="244.83" y1="230.18" x2="244.83" y2="202.98"/>
          <line class="cls-4" x1="247.26" y1="208" x2="247.26" y2="205.46"/>
        </g>
        <line class="cls-4" x1="241.84" y1="230.18" x2="241.84" y2="215.2"/>
      </g>
      <g>
        <g>
          <g>
            <line class="cls-4" x1="290.81" y1="230.18" x2="290.81" y2="220.22"/>
            <line class="cls-4" x1="293.24" y1="230.18" x2="293.24" y2="207.98"/>
            <line class="cls-4" x1="290.81" y1="218" x2="290.81" y2="215.46"/>
          </g>
          <line class="cls-4" x1="296.23" y1="230.18" x2="296.23" y2="220.2"/>
        </g>
        <line class="cls-4" x1="302.93" y1="209.94" x2="302.93" y2="230.18"/>
      </g>
      <g>
        <g>
          <g>
            <line class="cls-4" x1="119.14" y1="230.18" x2="119.14" y2="220.22"/>
            <line class="cls-4" x1="121.57" y1="230.18" x2="121.57" y2="213.98"/>
            <line class="cls-4" x1="119.14" y1="218" x2="119.14" y2="215.46"/>
          </g>
          <line class="cls-4" x1="124.56" y1="230.18" x2="124.56" y2="220.2"/>
        </g>
        <line class="cls-4" x1="131.26" y1="214.94" x2="131.26" y2="230.18"/>
      </g>
      <g>
        <g>
          <g>
            <line class="cls-4" x1="339.76" y1="173.98" x2="339.76" y2="183.93"/>
            <line class="cls-4" x1="337.33" y1="173.98" x2="337.33" y2="196.18"/>
            <line class="cls-4" x1="339.76" y1="186.15" x2="339.76" y2="188.69"/>
          </g>
          <line class="cls-4" x1="334.34" y1="173.98" x2="334.34" y2="183.95"/>
        </g>
        <line class="cls-4" x1="327.64" y1="194.21" x2="327.64" y2="173.98"/>
      </g>
      <g>
        <g>
          <g>
            <line class="cls-4" x1="422.38" y1="229.91" x2="422.38" y2="219.96"/>
            <line class="cls-4" x1="424.81" y1="229.91" x2="424.81" y2="207.71"/>
            <line class="cls-4" x1="422.38" y1="217.74" x2="422.38" y2="215.2"/>
          </g>
          <line class="cls-4" x1="427.8" y1="229.91" x2="427.8" y2="219.94"/>
        </g>
        <line class="cls-4" x1="434.51" y1="209.68" x2="434.51" y2="229.91"/>
      </g>
      <g>
        <g>
          <g>
            <line class="cls-4" x1="472.98" y1="229.91" x2="472.98" y2="219.96"/>
            <line class="cls-4" x1="475.41" y1="229.91" x2="475.41" y2="207.71"/>
            <line class="cls-4" x1="472.98" y1="217.74" x2="472.98" y2="215.2"/>
          </g>
          <line class="cls-4" x1="478.4" y1="229.91" x2="478.4" y2="219.94"/>
        </g>
        <line class="cls-4" x1="485.1" y1="209.68" x2="485.1" y2="229.91"/>
      </g>
      <g>
        <line class="cls-4" x1="400.06" y1="200.6" x2="400.06" y2="196.15"/>
        <line class="cls-4" x1="403.35" y1="195.38" x2="403.35" y2="190.93"/>
      </g>
      <g>
        <line class="cls-4" x1="503.98" y1="220.29" x2="503.98" y2="215.84"/>
        <line class="cls-4" x1="507.28" y1="215.07" x2="507.28" y2="210.62"/>
      </g>
      <g>
        <line class="cls-4" x1="449.16" y1="188.76" x2="449.16" y2="184.31"/>
        <line class="cls-4" x1="452.45" y1="183.54" x2="452.45" y2="179.09"/>
      </g>
      <g>
        <line class="cls-4" x1="316.35" y1="212.83" x2="316.35" y2="208.38"/>
        <line class="cls-4" x1="319.64" y1="207.62" x2="319.64" y2="203.17"/>
      </g>
      <g>
        <line class="cls-4" x1="496.22" y1="170.55" x2="496.22" y2="166.1"/>
        <line class="cls-4" x1="499.51" y1="165.33" x2="499.51" y2="160.88"/>
      </g>
      <g>
        <line class="cls-4" x1="522.57" y1="196.3" x2="522.57" y2="191.85"/>
        <line class="cls-4" x1="525.86" y1="191.09" x2="525.86" y2="186.64"/>
      </g>
      <g>
        <line class="cls-4" x1="221.84" y1="195" x2="221.84" y2="199.45"/>
        <line class="cls-4" x1="218.55" y1="200.22" x2="218.55" y2="204.67"/>
      </g>
      <g>
        <line class="cls-4" x1="209.8" y1="215.39" x2="209.8" y2="219.84"/>
        <line class="cls-4" x1="206.51" y1="220.61" x2="206.51" y2="225.06"/>
      </g>
      <g>
        <line class="cls-4" x1="107.74" y1="214.24" x2="107.74" y2="218.69"/>
        <line class="cls-4" x1="104.45" y1="219.46" x2="104.45" y2="223.91"/>
      </g>
      <g>
        <line class="cls-4" x1="154.67" y1="212.09" x2="154.67" y2="216.54"/>
        <line class="cls-4" x1="151.37" y1="217.31" x2="151.37" y2="221.76"/>
      </g>
      <g>
        <path class="cls-11" d="M453.47,162.24h-5.47c0-1.51,1.23-2.73,2.73-2.73,.65,0,1.25,.22,1.71,.6,.62,.5,1.02,1.27,1.02,2.14Z"/>
        <path class="cls-11" d="M456.9,162.24h-5.47c0-.87,.4-1.64,1.03-2.14,.47-.37,1.05-.6,1.7-.6,1.51,0,2.74,1.22,2.74,2.73Z"/>
      </g>
      <g>
        <path class="cls-11" d="M396.3,160.97h-5.47c0-1.51,1.23-2.73,2.73-2.73,.65,0,1.25,.22,1.71,.6,.62,.5,1.02,1.27,1.02,2.14Z"/>
        <path class="cls-11" d="M399.73,160.97h-5.47c0-.87,.4-1.64,1.03-2.14,.47-.37,1.05-.6,1.7-.6,1.51,0,2.74,1.22,2.74,2.73Z"/>
      </g>
      <g>
        <g>
          <path class="cls-23" d="M344.57,146.46h-5.47c0-1.51,1.23-2.73,2.73-2.73,.65,0,1.25,.22,1.71,.6,.62,.5,1.02,1.27,1.02,2.14Z"/>
          <path class="cls-23" d="M347.99,146.46h-5.47c0-.87,.4-1.64,1.03-2.14,.47-.37,1.05-.6,1.7-.6,1.51,0,2.74,1.22,2.74,2.73Z"/>
        </g>
        <path class="cls-14" d="M360.22,146.46h-5.47c0-.87,.4-1.64,1.03-2.14,.47-.37,1.05-.6,1.7-.6,1.51,0,2.74,1.22,2.74,2.73Z"/>
      </g>
      <g>
        <path class="cls-11" d="M498.39,125.88h-5.47c0-1.51,1.23-2.73,2.73-2.73,.65,0,1.25,.22,1.71,.6,.62,.5,1.02,1.27,1.02,2.14Z"/>
        <path class="cls-11" d="M501.81,125.88h-5.47c0-.87,.4-1.64,1.03-2.14,.47-.37,1.05-.6,1.7-.6,1.51,0,2.74,1.22,2.74,2.73Z"/>
      </g>
      <g>
        <path class="cls-11" d="M512.14,116.79h-10.83c0-3,2.43-5.41,5.41-5.41,1.29,0,2.47,.44,3.4,1.18,1.24,.99,2.02,2.51,2.02,4.23Z"/>
        <path class="cls-11" d="M526.79,116.79h-19.21c0-3.05,1.41-5.74,3.63-7.5,1.64-1.31,3.7-2.09,5.97-2.09,5.31,0,9.62,4.28,9.62,9.59Z"/>
      </g>
      <g>
        <path class="cls-11" d="M519.48,125.88h-5.47c0-1.51,1.23-2.73,2.73-2.73,.65,0,1.25,.22,1.71,.6,.62,.5,1.02,1.27,1.02,2.14Z"/>
        <path class="cls-11" d="M522.9,125.88h-5.47c0-.87,.4-1.64,1.03-2.14,.47-.37,1.05-.6,1.7-.6,1.51,0,2.74,1.22,2.74,2.73Z"/>
      </g>
      <g>
        <circle class="cls-23" cx="245.8" cy="171.94" r="7.44"/>
        <rect class="cls-14" x="245.37" y="172.6" width=".86" height="13.55"/>
      </g>
      <circle class="cls-12" cx="226.05" cy="38.59" r="23.44"/>
      <path class="cls-16" d="M334.45,46.26h-54.94c-.05-.46-.07-.93-.07-1.4,0-8.27,6.71-14.97,14.97-14.97,5.8,0,10.84,3.3,13.31,8.13,.97-.28,1.99-.43,3.05-.43,4.18,0,7.83,2.31,9.73,5.72,1.58-1.25,3.58-2,5.75-2,3.55,0,6.64,2,8.19,4.95Z"/>
      <path class="cls-15" d="M155.12,108.79h55.08c.05-.46,.07-.93,.07-1.4,0-8.29-6.72-15.01-15.01-15.01-5.81,0-10.86,3.31-13.35,8.15-.97-.28-1.99-.43-3.06-.43-4.19,0-7.85,2.32-9.75,5.74-1.58-1.25-3.59-2.01-5.76-2.01-3.56,0-6.66,2.01-8.21,4.96Z"/>
      <circle class="cls-9" cx="294.62" cy="166.87" r="1.08"/>
      <circle class="cls-9" cx="286.9" cy="171.08" r="1.52"/>
      <g>
        <g>
          <rect class="cls-22" x="505.7" y="120.47" width="21.89" height="110"/>
          <rect class="cls-15" x="490.21" y="120.47" width="21.52" height="110"/>
        </g>
        <g>
          <g>
            <g>
              <g>
                <rect class="cls-10" x="498.87" y="126.54" width="4.41" height="8.18"/>
                <rect class="cls-10" x="504.68" y="126.54" width="4.41" height="8.18"/>
              </g>
              <g>
                <rect class="cls-10" x="498.87" y="137.78" width="4.41" height="8.18"/>
                <rect class="cls-10" x="504.68" y="137.78" width="4.41" height="8.18"/>
              </g>
              <g>
                <rect class="cls-10" x="498.87" y="160.27" width="4.41" height="8.18"/>
                <rect class="cls-10" x="504.68" y="160.27" width="4.41" height="8.18"/>
              </g>
              <g>
                <rect class="cls-10" x="498.87" y="149.02" width="4.41" height="8.18"/>
                <rect class="cls-10" x="504.68" y="149.02" width="4.41" height="8.18"/>
              </g>
            </g>
            <g>
              <g>
                <rect class="cls-10" x="498.87" y="176.07" width="4.41" height="8.18"/>
                <rect class="cls-10" x="504.68" y="176.07" width="4.41" height="8.18"/>
              </g>
              <g>
                <rect class="cls-10" x="498.87" y="187.31" width="4.41" height="8.18"/>
                <rect class="cls-10" x="504.68" y="187.31" width="4.41" height="8.18"/>
              </g>
              <g>
                <rect class="cls-10" x="498.87" y="209.79" width="4.41" height="8.18"/>
                <rect class="cls-10" x="504.68" y="209.79" width="4.41" height="8.18"/>
              </g>
              <g>
                <rect class="cls-10" x="498.87" y="198.55" width="4.41" height="8.18"/>
                <rect class="cls-10" x="504.68" y="198.55" width="4.41" height="8.18"/>
              </g>
            </g>
          </g>
          <g>
            <g>
              <rect class="cls-10" x="492.85" y="126.54" width="4.41" height="8.18"/>
              <rect class="cls-10" x="492.85" y="137.78" width="4.41" height="8.18"/>
              <rect class="cls-10" x="492.85" y="160.27" width="4.41" height="8.18"/>
              <rect class="cls-10" x="492.85" y="149.02" width="4.41" height="8.18"/>
            </g>
            <g>
              <rect class="cls-10" x="492.85" y="176.07" width="4.41" height="8.18"/>
              <rect class="cls-10" x="492.85" y="187.31" width="4.41" height="8.18"/>
              <rect class="cls-10" x="492.85" y="209.79" width="4.41" height="8.18"/>
              <rect class="cls-10" x="492.85" y="198.55" width="4.41" height="8.18"/>
            </g>
          </g>
        </g>
        <g>
          <g>
            <g>
              <rect class="cls-10" x="516.83" y="126.54" width="2.15" height="7.81"/>
              <rect class="cls-10" x="519.66" y="126.54" width="2.15" height="7.81"/>
            </g>
            <g>
              <rect class="cls-10" x="516.83" y="137.28" width="2.15" height="7.81"/>
              <rect class="cls-10" x="519.66" y="137.28" width="2.15" height="7.81"/>
            </g>
            <g>
              <rect class="cls-10" x="516.83" y="158.74" width="2.15" height="7.81"/>
              <rect class="cls-10" x="519.66" y="158.74" width="2.15" height="7.81"/>
            </g>
            <g>
              <rect class="cls-10" x="516.83" y="148.01" width="2.15" height="7.81"/>
              <rect class="cls-10" x="519.66" y="148.01" width="2.15" height="7.81"/>
            </g>
          </g>
          <g>
            <g>
              <rect class="cls-10" x="516.83" y="173.83" width="2.15" height="7.81"/>
              <rect class="cls-10" x="519.66" y="173.83" width="2.15" height="7.81"/>
            </g>
            <g>
              <rect class="cls-10" x="516.83" y="184.57" width="2.15" height="7.81"/>
              <rect class="cls-10" x="519.66" y="184.57" width="2.15" height="7.81"/>
            </g>
            <g>
              <rect class="cls-10" x="516.83" y="206.03" width="2.15" height="7.81"/>
              <rect class="cls-10" x="519.66" y="206.03" width="2.15" height="7.81"/>
            </g>
            <g>
              <rect class="cls-10" x="516.83" y="195.3" width="2.15" height="7.81"/>
              <rect class="cls-10" x="519.66" y="195.3" width="2.15" height="7.81"/>
            </g>
          </g>
        </g>
      </g>
      <rect class="cls-24" x="29.57" y="266.26" width="10.54" height="45.78"/>
      <rect class="cls-24" x="68.87" y="266.26" width="10.54" height="45.78"/>
      <rect class="cls-24" x="108.16" y="266.26" width="10.54" height="45.78"/>
      <rect class="cls-24" x="147.46" y="266.26" width="10.54" height="45.78"/>
      <rect class="cls-24" x="186.76" y="266.26" width="10.54" height="45.78"/>
      <rect class="cls-24" x="343.94" y="266.26" width="10.54" height="45.78"/>
      <rect class="cls-24" x="383.23" y="266.26" width="10.54" height="45.78"/>
      <rect class="cls-24" x="422.53" y="266.26" width="10.54" height="45.78"/>
      <rect class="cls-24" x="461.82" y="266.26" width="10.54" height="45.78"/>
      <rect class="cls-24" x="501.12" y="266.26" width="10.54" height="45.78"/>
      <rect class="cls-24" x="226.05" y="266.26" width="10.54" height="45.78"/>
      <rect class="cls-24" x="265.35" y="266.26" width="10.54" height="45.78"/>
      <rect class="cls-24" x="304.64" y="266.26" width="10.54" height="45.78"/>
      <rect class="cls-27" x="268.81" y="7.39" width="9.93" height="547.54" transform="translate(554.93 7.39) rotate(90)"/>
      <rect class="cls-27" x="268.81" y="22.28" width="9.93" height="547.54" transform="translate(569.82 22.28) rotate(90)"/>
      <path class="cls-18" d="M269.8,251.29c2.36-3.36,5.98-8.08,10.63-7.64,3.78,.36,6.18,4.08,8.92,6.27,2.54,2.02,5.56,2.73,8.48,1.02s4.55-4.57,7.28-6.29c1.56-.98,3.28-1.12,4.85-.03,1.85,1.29,2.98,3.43,4.58,4.99,2.91,2.82,7.17,4.88,11.02,2.6,3.03-1.79,4.54-5.34,7.58-7.07,3.32-1.89,6.14,.82,8.27,3.14,2.34,2.56,4.99,5.73,8.84,5.4,5.61-.49,7.89-6.58,12.16-9.31,.81-.52,.06-1.82-.76-1.3-3.91,2.5-6.22,8.26-11.13,9.06-3.7,.61-6.24-2.96-8.44-5.33-2.03-2.18-4.52-4.3-7.71-3.71-3.53,.65-5.47,4.2-7.86,6.49-1.55,1.48-3.43,2.44-5.64,2.03-2.43-.46-4.51-2.16-6.12-3.95-2.41-2.66-4.84-6.54-9.02-5-2.99,1.1-4.89,4.02-7.26,5.98-1.26,1.04-2.75,1.89-4.43,1.8-1.77-.1-3.26-1.23-4.54-2.37-2.92-2.62-5.76-6.24-10.12-5.94-4.82,.33-8.32,4.75-10.88,8.39-.56,.79,.74,1.54,1.3,.76h0Z"/>
      <path class="cls-18" d="M427.19,256.34c2.36-3.36,5.98-8.08,10.63-7.64,3.78,.36,6.18,4.08,8.92,6.27,2.54,2.02,5.56,2.73,8.48,1.02s4.55-4.57,7.28-6.29c1.56-.98,3.28-1.12,4.85-.03,1.85,1.29,2.98,3.43,4.58,4.99,2.91,2.82,7.17,4.88,11.02,2.6,3.03-1.79,4.54-5.34,7.58-7.07,3.32-1.89,6.14,.82,8.27,3.14,2.34,2.56,4.99,5.73,8.84,5.4,5.61-.49,7.89-6.58,12.16-9.31,.81-.52,.06-1.82-.76-1.3-3.91,2.5-6.22,8.26-11.13,9.06-3.7,.61-6.24-2.96-8.44-5.33-2.03-2.18-4.52-4.3-7.71-3.71-3.53,.65-5.47,4.2-7.86,6.49-1.55,1.48-3.43,2.44-5.64,2.03-2.43-.46-4.51-2.16-6.12-3.95-2.41-2.66-4.84-6.54-9.02-5-2.99,1.1-4.89,4.02-7.26,5.98-1.26,1.04-2.75,1.89-4.43,1.8-1.77-.1-3.26-1.23-4.54-2.37-2.92-2.62-5.76-6.24-10.12-5.94-4.82,.33-8.32,4.75-10.88,8.39-.56,.79,.74,1.54,1.3,.76h0Z"/>
      <path class="cls-18" d="M15.51,261.38c2.36-3.36,5.98-8.08,10.63-7.64,3.78,.36,6.18,4.08,8.92,6.27,2.54,2.02,5.56,2.73,8.48,1.02s4.55-4.57,7.28-6.29c1.56-.98,3.28-1.12,4.85-.03,1.85,1.29,2.98,3.43,4.58,4.99,2.91,2.82,7.17,4.88,11.02,2.6,3.03-1.79,4.54-5.34,7.58-7.07,3.32-1.89,6.14,.82,8.27,3.14,2.34,2.56,4.99,5.73,8.84,5.4,5.61-.49,7.89-6.58,12.16-9.31,.81-.52,.06-1.82-.76-1.3-3.91,2.5-6.22,8.26-11.13,9.06-3.7,.61-6.24-2.96-8.44-5.33-2.03-2.18-4.52-4.3-7.71-3.71-3.53,.65-5.47,4.2-7.86,6.49-1.55,1.48-3.43,2.44-5.64,2.03-2.43-.46-4.51-2.16-6.12-3.95-2.41-2.66-4.84-6.54-9.02-5-2.99,1.1-4.89,4.02-7.26,5.98-1.26,1.04-2.75,1.89-4.43,1.8-1.77-.1-3.26-1.23-4.54-2.37-2.92-2.62-5.76-6.24-10.12-5.94-4.82,.33-8.32,4.75-10.88,8.39-.56,.79,.74,1.54,1.3,.76h0Z"/>
      <path class="cls-18" d="M138.85,260.03c2.36-3.36,5.98-8.08,10.63-7.64,3.78,.36,6.18,4.08,8.92,6.27,2.54,2.02,5.56,2.73,8.48,1.02s4.55-4.57,7.28-6.29c1.56-.98,3.28-1.12,4.85-.03,1.85,1.29,2.98,3.43,4.58,4.99,2.91,2.82,7.17,4.88,11.02,2.6,3.03-1.79,4.54-5.34,7.58-7.07,3.32-1.89,6.14,.82,8.27,3.14,2.34,2.56,4.99,5.73,8.84,5.4,5.61-.49,7.89-6.58,12.16-9.31,.81-.52,.06-1.82-.76-1.3-3.91,2.5-6.22,8.26-11.13,9.06-3.7,.61-6.24-2.96-8.44-5.33-2.03-2.18-4.52-4.3-7.71-3.71-3.53,.65-5.47,4.2-7.86,6.49-1.55,1.48-3.43,2.44-5.64,2.03-2.43-.46-4.51-2.16-6.12-3.95-2.41-2.66-4.84-6.54-9.02-5-2.99,1.1-4.89,4.02-7.26,5.98-1.26,1.04-2.75,1.89-4.43,1.8-1.77-.1-3.26-1.23-4.54-2.37-2.92-2.62-5.76-6.24-10.12-5.94-4.82,.33-8.32,4.75-10.88,8.39-.56,.79,.74,1.54,1.3,.76h0Z"/>
      <g>
        <circle class="cls-29" cx="86.85" cy="208.7" r="7.44"/>
        <rect class="cls-14" x="86.42" y="209.36" width=".86" height="13.55"/>
        <path class="cls-28" d="M83.64,204.8c.93-.9,2.31-1.35,3.64-1.32,.66,.02,.66-1.01,0-1.02-1.57-.04-3.22,.52-4.36,1.62-.47,.46,.25,1.18,.72,.72h0Z"/>
        <circle class="cls-28" cx="82.01" cy="205.76" r=".64"/>
      </g>
      <g>
        <circle class="cls-29" cx="140.22" cy="171.28" r="7.44"/>
        <rect class="cls-14" x="139.79" y="171.94" width=".86" height="13.55"/>
        <path class="cls-28" d="M137.01,167.39c.93-.9,2.31-1.35,3.64-1.32,.66,.02,.66-1.01,0-1.02-1.57-.04-3.22,.52-4.36,1.62-.47,.46,.25,1.18,.72,.72h0Z"/>
        <circle class="cls-28" cx="135.38" cy="168.35" r=".64"/>
      </g>
      <g>
        <circle class="cls-29" cx="441.39" cy="213.15" r="7.44"/>
        <rect class="cls-14" x="440.96" y="213.81" width=".86" height="13.55"/>
        <path class="cls-28" d="M438.19,209.25c.93-.9,2.31-1.35,3.64-1.32,.66,.02,.66-1.01,0-1.02-1.57-.04-3.22,.52-4.36,1.62-.47,.46,.25,1.18,.72,.72h0Z"/>
        <circle class="cls-28" cx="436.55" cy="210.21" r=".64"/>
      </g>
      <g>
        <circle class="cls-29" cx="523.68" cy="71.74" r="7.44"/>
        <rect class="cls-14" x="523.25" y="72.4" width=".86" height="13.55"/>
        <path class="cls-28" d="M520.47,67.85c.93-.9,2.31-1.35,3.64-1.32,.66,.02,.66-1.01,0-1.02-1.57-.04-3.22,.52-4.36,1.62-.47,.46,.25,1.18,.72,.72h0Z"/>
        <circle class="cls-28" cx="518.84" cy="68.8" r=".64"/>
      </g>
      <g>
        <path class="cls-7" d="M408.52,108.24h-10.83c0-3,2.43-5.41,5.41-5.41,1.29,0,2.47,.44,3.4,1.18,1.24,.99,2.02,2.51,2.02,4.23Z"/>
        <path class="cls-11" d="M403.1,108.24h-19.21c0-3.05,1.41-5.74,3.63-7.5,1.64-1.31,3.7-2.09,5.97-2.09,5.31,0,9.62,4.28,9.62,9.59Z"/>
        <path class="cls-26" d="M390.06,108.24h-12.43c0-3.44,2.79-6.22,6.22-6.22,1.49,0,2.84,.51,3.9,1.35,1.42,1.14,2.32,2.89,2.32,4.86Z"/>
      </g>
      <g>
        <path class="cls-7" d="M508.37,85.72h-10.83c0-3,2.43-5.41,5.41-5.41,1.29,0,2.47,.44,3.4,1.18,1.24,.99,2.02,2.51,2.02,4.23Z"/>
        <path class="cls-11" d="M502.96,85.72h-19.21c0-3.05,1.41-5.74,3.63-7.5,1.64-1.31,3.7-2.09,5.97-2.09,5.31,0,9.62,4.28,9.62,9.59Z"/>
        <path class="cls-26" d="M489.91,85.72h-12.43c0-3.44,2.79-6.22,6.22-6.22,1.49,0,2.84,.51,3.9,1.35,1.42,1.14,2.32,2.89,2.32,4.86Z"/>
      </g>
      <g>
        <path class="cls-26" d="M155.08,206.77h-9.73c0-2.69,2.18-4.86,4.86-4.86,1.16,0,2.22,.4,3.05,1.06,1.11,.89,1.81,2.26,1.81,3.8Z"/>
        <path class="cls-26" d="M162.3,206.77h-12.08c0-3.35,2.71-6.04,6.04-6.04,1.44,0,2.76,.49,3.79,1.32,1.38,1.11,2.25,2.81,2.25,4.72Z"/>
        <path class="cls-26" d="M171.46,206.77h-15.2c0-4.21,3.41-7.6,7.6-7.6,1.82,0,3.47,.62,4.77,1.66,1.74,1.4,2.83,3.53,2.83,5.94Z"/>
      </g>
      <g>
        <path class="cls-26" d="M420.58,126.95h-9.73c0-2.69,2.18-4.86,4.86-4.86,1.16,0,2.22,.4,3.05,1.06,1.11,.89,1.81,2.26,1.81,3.8Z"/>
        <path class="cls-26" d="M427.8,126.95h-12.08c0-3.35,2.71-6.04,6.04-6.04,1.44,0,2.76,.49,3.79,1.32,1.38,1.11,2.25,2.81,2.25,4.72Z"/>
        <path class="cls-26" d="M436.96,126.95h-15.2c0-4.21,3.41-7.6,7.6-7.6,1.82,0,3.47,.62,4.77,1.66,1.74,1.4,2.83,3.53,2.83,5.94Z"/>
      </g>
      <g>
        <path class="cls-17" d="M468.6,147.01h-7.83c0-1.45,1.76-2.62,3.92-2.62,.94,0,1.79,.21,2.46,.57,.89,.48,1.46,1.22,1.46,2.05Z"/>
        <path class="cls-17" d="M475.42,147.01h-7.83c0-1.45,1.76-2.62,3.92-2.62,.94,0,1.79,.21,2.46,.57,.89,.48,1.46,1.22,1.46,2.05Z"/>
      </g>
      <g>
        <path class="cls-17" d="M139.48,208.04h-7.83c0-1.45,1.76-2.62,3.92-2.62,.94,0,1.79,.21,2.46,.57,.89,.48,1.46,1.22,1.46,2.05Z"/>
        <path class="cls-17" d="M146.3,208.04h-7.83c0-1.45,1.76-2.62,3.92-2.62,.94,0,1.79,.21,2.46,.57,.89,.48,1.46,1.22,1.46,2.05Z"/>
      </g>
      <g>
        <path class="cls-17" d="M504.42,100.84h-7.83c0-1.45,1.76-2.62,3.92-2.62,.94,0,1.79,.21,2.46,.57,.89,.48,1.46,1.22,1.46,2.05Z"/>
        <path class="cls-17" d="M511.24,100.84h-7.83c0-1.45,1.76-2.62,3.92-2.62,.94,0,1.79,.21,2.46,.57,.89,.48,1.46,1.22,1.46,2.05Z"/>
        <path class="cls-17" d="M517.97,100.84h-7.83c0-1.45,1.76-2.62,3.92-2.62,.94,0,1.79,.21,2.46,.57,.89,.48,1.46,1.22,1.46,2.05Z"/>
      </g>
      <g>
        <path class="cls-17" d="M344.08,160.92h-7.83c0-1.45,1.76-2.62,3.92-2.62,.94,0,1.79,.21,2.46,.57,.89,.48,1.46,1.22,1.46,2.05Z"/>
        <path class="cls-17" d="M350.91,160.92h-7.83c0-1.45,1.76-2.62,3.92-2.62,.94,0,1.79,.21,2.46,.57,.89,.48,1.46,1.22,1.46,2.05Z"/>
        <path class="cls-17" d="M357.64,160.92h-7.83c0-1.45,1.76-2.62,3.92-2.62,.94,0,1.79,.21,2.46,.57,.89,.48,1.46,1.22,1.46,2.05Z"/>
      </g>
      <g>
        <path class="cls-17" d="M518.8,92.75h-7.83c0-1.45,1.76-2.62,3.92-2.62,.94,0,1.79,.21,2.46,.57,.89,.48,1.46,1.22,1.46,2.05Z"/>
        <path class="cls-17" d="M525.62,92.75h-7.83c0-1.45,1.76-2.62,3.92-2.62,.94,0,1.79,.21,2.46,.57,.89,.48,1.46,1.22,1.46,2.05Z"/>
        <path class="cls-17" d="M532.35,92.75h-7.83c0-1.45,1.76-2.62,3.92-2.62,.94,0,1.79,.21,2.46,.57,.89,.48,1.46,1.22,1.46,2.05Z"/>
      </g>
      <g>
        <path class="cls-17" d="M135.6,217.78h-7.83c0-1.45,1.76-2.62,3.92-2.62,.94,0,1.79,.21,2.46,.57,.89,.48,1.46,1.22,1.46,2.05Z"/>
        <path class="cls-17" d="M142.43,217.78h-7.83c0-1.45,1.76-2.62,3.92-2.62,.94,0,1.79,.21,2.46,.57,.89,.48,1.46,1.22,1.46,2.05Z"/>
        <path class="cls-17" d="M149.16,217.78h-7.83c0-1.45,1.76-2.62,3.92-2.62,.94,0,1.79,.21,2.46,.57,.89,.48,1.46,1.22,1.46,2.05Z"/>
      </g>
      <path class="cls-17" d="M492.94,132.04h-7.83c0-1.45,1.76-2.62,3.92-2.62,.94,0,1.79,.21,2.46,.57,.89,.48,1.46,1.22,1.46,2.05Z"/>
      <path class="cls-17" d="M484.75,119.98h-7.83c0-1.45,1.76-2.62,3.92-2.62,.94,0,1.79,.21,2.46,.57,.89,.48,1.46,1.22,1.46,2.05Z"/>
      <path class="cls-17" d="M446.47,90.2h-7.83c0-1.45,1.76-2.62,3.92-2.62,.94,0,1.79,.21,2.46,.57,.89,.48,1.46,1.22,1.46,2.05Z"/>
      <path class="cls-17" d="M434.68,82.96h-7.83c0-1.45,1.76-2.62,3.92-2.62,.94,0,1.79,.21,2.46,.57,.89,.48,1.46,1.22,1.46,2.05Z"/>
      <path class="cls-17" d="M144.13,226.37h-7.83c0-1.45,1.76-2.62,3.92-2.62,.94,0,1.79,.21,2.46,.57,.89,.48,1.46,1.22,1.46,2.05Z"/>
      <g>
        <polygon class="cls-11" points="461.32 53 466.12 92.62 470.92 132.23 461.32 132.23 451.72 132.23 456.52 92.62 461.32 53"/>
        <rect class="cls-13" x="460.26" y="124.52" width="2.11" height="18.4"/>
      </g>
      <g>
        <polygon class="cls-11" points="473.42 49.81 477.58 63.83 481.74 77.86 473.42 77.86 465.1 77.86 469.26 63.83 473.42 49.81"/>
        <rect class="cls-13" x="472.51" y="75.13" width="1.83" height="6.52"/>
      </g>
      <g>
        <polygon class="cls-11" points="119.69 124.84 124.49 164.45 129.29 204.06 119.69 204.06 110.09 204.06 114.89 164.45 119.69 124.84"/>
        <rect class="cls-13" x="118.64" y="196.35" width="2.11" height="18.4"/>
      </g>
      <polyline class="cls-5" points="175.01 80.92 178.42 83.72 181.83 80.31"/>
      <polyline class="cls-5" points="326.63 63.22 330.04 66.01 333.45 62.6"/>
      <polyline class="cls-5" points="151.26 147.63 154.67 150.42 158.08 147.01"/>
      <polyline class="cls-5" points="412.78 66.81 414.75 70.76 419.25 69.04"/>
      <g>
        <rect class="cls-15" x="409.88" y="146.23" width="12.6" height="10.09"/>
        <polygon class="cls-22" points="430.99 156.32 422.48 156.32 422.48 146.23 426.39 141.13 430.99 146.23 430.99 156.32"/>
        <path class="cls-24" d="M422.67,146.78h-13.81c-.29,0-.45-.35-.25-.57l4.55-5.08h14.11l-4.59,5.65Z"/>
        <path class="cls-24" d="M426.46,141.74l4.54,5.04h.89c.16,0,.25-.18,.16-.31l-4.79-5.34"/>
        <rect class="cls-24" x="422.94" y="139.7" width="1.94" height="1.94"/>
        <path class="cls-23" d="M417.89,149.42h0c1.35,0,2.44,1.1,2.44,2.44v4.46h-4.89v-4.46c0-1.35,1.1-2.44,2.44-2.44Z"/>
        <rect class="cls-10" x="411.45" y="149.42" width="1.88" height="3.42"/>
        <rect class="cls-10" x="425.8" y="149.42" width="1.88" height="3.42"/>
      </g>
      <g>
        <rect class="cls-15" x="451.36" y="203.66" width="33.47" height="26.81"/>
        <polygon class="cls-22" points="507.44 230.46 484.82 230.46 484.82 203.66 495.21 190.1 507.44 203.66 507.44 230.46"/>
        <path class="cls-24" d="M485.33,205.11h-36.7c-.78,0-1.2-.93-.67-1.51l12.08-13.5h37.49l-12.2,15.01Z"/>
        <path class="cls-24" d="M495.41,191.72l12.07,13.39h2.35c.42,0,.67-.48,.43-.83l-12.73-14.18"/>
        <rect class="cls-24" x="486.04" y="186.3" width="5.17" height="5.17"/>
        <path class="cls-23" d="M472.63,212.13h0c3.58,0,6.49,2.91,6.49,6.49v11.84h-12.99v-11.84c0-3.58,2.91-6.49,6.49-6.49Z"/>
        <rect class="cls-10" x="455.54" y="212.13" width="4.98" height="9.09"/>
        <rect class="cls-10" x="493.64" y="212.13" width="4.98" height="9.09"/>
      </g>
      <g>
        <g>
          <circle class="cls-23" cx="423.33" cy="98.87" r="7.44"/>
          <rect class="cls-14" x="422.9" y="97.53" width=".86" height="15.55"/>
        </g>
        <polyline class="cls-6" points="419.73 96.92 423.36 101.65 426.93 96.92"/>
        <polyline class="cls-3" points="421.18 101.65 423.35 104.47 425.48 101.65"/>
      </g>
      <g>
        <g>
          <circle class="cls-23" cx="446.47" cy="69.53" r="7.44"/>
          <rect class="cls-14" x="446.04" y="68.19" width=".86" height="15.55"/>
        </g>
        <polyline class="cls-6" points="442.87 67.58 446.5 72.31 450.07 67.58"/>
        <polyline class="cls-3" points="444.32 72.31 446.49 75.13 448.62 72.31"/>
      </g>
      <g>
        <g>
          <circle class="cls-23" cx="396.92" cy="121.13" r="7.44"/>
          <rect class="cls-14" x="396.49" y="119.79" width=".86" height="15.55"/>
        </g>
        <polyline class="cls-6" points="393.32 119.17 396.95 123.9 400.52 119.17"/>
        <polyline class="cls-3" points="394.77 123.9 396.94 126.73 399.07 123.9"/>
      </g>
      <g>
        <g>
          <circle class="cls-23" cx="400.52" cy="82.33" r="7.44"/>
          <rect class="cls-14" x="400.09" y="80.99" width=".86" height="15.55"/>
        </g>
        <polyline class="cls-6" points="396.92 80.38 400.55 85.11 404.12 80.38"/>
        <polyline class="cls-3" points="398.37 85.11 400.54 87.93 402.67 85.11"/>
      </g>
      <path class="cls-24" d="M447.71,219.24c2.96-2.86,7.66-2.86,10.62,0l6.09,5.89,11.39,11.02h-45.58l11.39-11.02,6.09-5.89Z"/>
      <g>
        <circle class="cls-30" cx="34.84" cy="280.95" r="2.22"/>
        <circle class="cls-30" cx="34.84" cy="296.05" r="2.22"/>
      </g>
      <g>
        <circle class="cls-30" cx="74.14" cy="280.95" r="2.22"/>
        <circle class="cls-30" cx="74.14" cy="296.05" r="2.22"/>
      </g>
      <g>
        <circle class="cls-30" cx="113.44" cy="280.95" r="2.22"/>
        <circle class="cls-30" cx="113.44" cy="296.05" r="2.22"/>
      </g>
      <g>
        <circle class="cls-30" cx="152.73" cy="280.95" r="2.22"/>
        <circle class="cls-30" cx="152.73" cy="296.05" r="2.22"/>
      </g>
      <g>
        <circle class="cls-30" cx="192.03" cy="280.95" r="2.22"/>
        <circle class="cls-30" cx="192.03" cy="296.05" r="2.22"/>
      </g>
      <g>
        <circle class="cls-30" cx="231.32" cy="280.95" r="2.22"/>
        <circle class="cls-30" cx="231.32" cy="296.05" r="2.22"/>
      </g>
      <g>
        <circle class="cls-30" cx="270.62" cy="280.95" r="2.22"/>
        <circle class="cls-30" cx="270.62" cy="296.05" r="2.22"/>
      </g>
      <g>
        <circle class="cls-30" cx="309.63" cy="280.95" r="2.22"/>
        <circle class="cls-30" cx="309.63" cy="296.05" r="2.22"/>
      </g>
      <g>
        <circle class="cls-30" cx="349.21" cy="280.95" r="2.22"/>
        <circle class="cls-30" cx="349.21" cy="296.05" r="2.22"/>
      </g>
      <g>
        <circle class="cls-30" cx="388.5" cy="280.95" r="2.22"/>
        <circle class="cls-30" cx="388.5" cy="296.05" r="2.22"/>
      </g>
      <g>
        <circle class="cls-30" cx="427.8" cy="280.95" r="2.22"/>
        <circle class="cls-30" cx="427.8" cy="296.05" r="2.22"/>
      </g>
      <g>
        <circle class="cls-30" cx="467.41" cy="280.95" r="2.22"/>
        <circle class="cls-30" cx="467.41" cy="296.05" r="2.22"/>
      </g>
      <g>
        <circle class="cls-30" cx="506.39" cy="280.95" r="2.22"/>
        <circle class="cls-30" cx="506.39" cy="296.05" r="2.22"/>
      </g>
      <g>
        <path class="cls-11" d="M338.25,230.46h-10.83c0-3,2.43-5.41,5.41-5.41,1.29,0,2.47,.44,3.4,1.18,1.24,.99,2.02,2.51,2.02,4.23Z"/>
        <path class="cls-11" d="M352.91,230.46h-19.21c0-3.05,1.41-5.74,3.63-7.5,1.64-1.31,3.7-2.09,5.97-2.09,5.31,0,9.62,4.28,9.62,9.59Z"/>
      </g>
      <path class="cls-24" d="M149.33,228.48c2.57-2.48,6.64-2.48,9.21,0l5.28,5.11,9.89,9.56h-39.54l9.89-9.56,5.28-5.11Z"/>
      <g>
        <line class="cls-1" x1="519.23" y1="279.51" x2="523.68" y2="279.51"/>
        <line class="cls-1" x1="524.45" y1="282.8" x2="528.9" y2="282.8"/>
      </g>
      <g>
        <line class="cls-1" x1="485.08" y1="294.4" x2="489.53" y2="294.4"/>
        <line class="cls-1" x1="490.3" y1="297.7" x2="494.75" y2="297.7"/>
      </g>
      <g>
        <line class="cls-1" x1="241.71" y1="279.3" x2="246.16" y2="279.3"/>
        <line class="cls-1" x1="246.93" y1="282.6" x2="251.38" y2="282.6"/>
      </g>
      <g>
        <line class="cls-1" x1="87.43" y1="279.3" x2="91.88" y2="279.3"/>
        <line class="cls-1" x1="92.65" y1="282.6" x2="97.1" y2="282.6"/>
      </g>
      <g>
        <line class="cls-1" x1="420.01" y1="282.6" x2="415.56" y2="282.6"/>
        <line class="cls-1" x1="414.79" y1="279.3" x2="410.34" y2="279.3"/>
      </g>
      <g>
        <line class="cls-1" x1="376.01" y1="282.6" x2="371.56" y2="282.6"/>
        <line class="cls-1" x1="370.8" y1="279.3" x2="366.35" y2="279.3"/>
      </g>
      <g>
        <line class="cls-1" x1="332.26" y1="297.7" x2="327.81" y2="297.7"/>
        <line class="cls-1" x1="327.04" y1="294.4" x2="322.59" y2="294.4"/>
      </g>
      <g>
        <line class="cls-1" x1="178.54" y1="297.7" x2="174.09" y2="297.7"/>
        <line class="cls-1" x1="173.32" y1="294.4" x2="168.87" y2="294.4"/>
      </g>
      <g>
        <line class="cls-1" x1="175.69" y1="282.6" x2="171.24" y2="282.6"/>
        <line class="cls-1" x1="170.47" y1="279.3" x2="166.02" y2="279.3"/>
      </g>
      <g>
        <line class="cls-1" x1="50.93" y1="297.7" x2="46.48" y2="297.7"/>
        <line class="cls-1" x1="45.72" y1="294.4" x2="41.27" y2="294.4"/>
      </g>
      <g>
        <rect class="cls-8" x="196.19" y="89.57" width="22.15" height="140.89"/>
        <rect class="cls-20" x="171.7" y="20.62" width="12.61" height="68.95"/>
        <rect class="cls-12" x="181.18" width="3.13" height="50.69"/>
        <rect class="cls-20" x="216.02" y="73.99" width="17.79" height="156.47"/>
        <polygon class="cls-22" points="186.95 72.01 171.7 76.81 171.7 230.46 191.5 230.46 186.95 72.01"/>
        <rect class="cls-8" x="233.8" y="73.99" width="4.52" height="156.47"/>
        <polygon class="cls-22" points="201.06 117.59 227.8 123.98 227.8 230.46 201.06 230.46 201.06 117.59"/>
        <g>
          <g>
            <g>
              <polygon class="cls-10" points="214.13 134.6 211.13 133.6 211.13 129.72 214.13 130.72 214.13 134.6"/>
              <polygon class="cls-10" points="214.13 139.93 211.13 138.93 211.13 135.05 214.13 136.05 214.13 139.93"/>
            </g>
            <g>
              <polygon class="cls-10" points="210.04 134.6 207.05 133.6 207.05 129.72 210.04 130.72 210.04 134.6"/>
              <polygon class="cls-10" points="210.04 139.93 207.05 138.93 207.05 135.05 210.04 136.05 210.04 139.93"/>
            </g>
            <g>
              <polygon class="cls-10" points="222.43 134.6 219.43 133.6 219.43 129.72 222.43 130.72 222.43 134.6"/>
              <polygon class="cls-10" points="222.43 139.93 219.43 138.93 219.43 135.05 222.43 136.05 222.43 139.93"/>
            </g>
            <g>
              <polygon class="cls-10" points="218.34 134.6 215.35 133.6 215.35 129.72 218.34 130.72 218.34 134.6"/>
              <polygon class="cls-10" points="218.34 139.93 215.35 138.93 215.35 135.05 218.34 136.05 218.34 139.93"/>
            </g>
          </g>
          <g>
            <g>
              <polygon class="cls-10" points="214.13 155.52 211.13 154.52 211.13 150.64 214.13 151.64 214.13 155.52"/>
              <polygon class="cls-10" points="214.13 160.85 211.13 159.85 211.13 155.97 214.13 156.97 214.13 160.85"/>
            </g>
            <g>
              <polygon class="cls-10" points="210.04 155.52 207.05 154.52 207.05 150.64 210.04 151.64 210.04 155.52"/>
              <polygon class="cls-10" points="210.04 160.85 207.05 159.85 207.05 155.97 210.04 156.97 210.04 160.85"/>
            </g>
            <g>
              <polygon class="cls-10" points="222.43 155.52 219.43 154.52 219.43 150.64 222.43 151.64 222.43 155.52"/>
              <polygon class="cls-10" points="222.43 160.85 219.43 159.85 219.43 155.97 222.43 156.97 222.43 160.85"/>
            </g>
            <g>
              <polygon class="cls-10" points="218.34 155.52 215.35 154.52 215.35 150.64 218.34 151.64 218.34 155.52"/>
              <polygon class="cls-10" points="218.34 160.85 215.35 159.85 215.35 155.97 218.34 156.97 218.34 160.85"/>
            </g>
          </g>
          <g>
            <g>
              <polygon class="cls-10" points="214.13 176.45 211.13 175.45 211.13 171.57 214.13 172.57 214.13 176.45"/>
              <polygon class="cls-10" points="214.13 181.77 211.13 180.77 211.13 176.9 214.13 177.9 214.13 181.77"/>
            </g>
            <g>
              <polygon class="cls-10" points="210.04 176.45 207.05 175.45 207.05 171.57 210.04 172.57 210.04 176.45"/>
              <polygon class="cls-10" points="210.04 181.77 207.05 180.77 207.05 176.9 210.04 177.9 210.04 181.77"/>
            </g>
            <g>
              <polygon class="cls-10" points="222.43 176.45 219.43 175.45 219.43 171.57 222.43 172.57 222.43 176.45"/>
              <polygon class="cls-10" points="222.43 181.77 219.43 180.77 219.43 176.9 222.43 177.9 222.43 181.77"/>
            </g>
            <g>
              <polygon class="cls-10" points="218.34 176.45 215.35 175.45 215.35 171.57 218.34 172.57 218.34 176.45"/>
              <polygon class="cls-10" points="218.34 181.77 215.35 180.77 215.35 176.9 218.34 177.9 218.34 181.77"/>
            </g>
          </g>
          <g>
            <g>
              <polygon class="cls-10" points="214.13 197.37 211.13 196.37 211.13 192.49 214.13 193.49 214.13 197.37"/>
              <polygon class="cls-10" points="214.13 202.7 211.13 201.7 211.13 197.82 214.13 198.82 214.13 202.7"/>
            </g>
            <g>
              <polygon class="cls-10" points="210.04 197.37 207.05 196.37 207.05 192.49 210.04 193.49 210.04 197.37"/>
              <polygon class="cls-10" points="210.04 202.7 207.05 201.7 207.05 197.82 210.04 198.82 210.04 202.7"/>
            </g>
            <g>
              <polygon class="cls-10" points="222.43 197.37 219.43 196.37 219.43 192.49 222.43 193.49 222.43 197.37"/>
              <polygon class="cls-10" points="222.43 202.7 219.43 201.7 219.43 197.82 222.43 198.82 222.43 202.7"/>
            </g>
            <g>
              <polygon class="cls-10" points="218.34 197.37 215.35 196.37 215.35 192.49 218.34 193.49 218.34 197.37"/>
              <polygon class="cls-10" points="218.34 202.7 215.35 201.7 215.35 197.82 218.34 198.82 218.34 202.7"/>
            </g>
          </g>
        </g>
        <polygon class="cls-15" points="201.06 230.46 181.93 230.46 181.93 64.16 201.06 61.16 201.06 230.46"/>
        <polygon class="cls-20" points="194.16 230.46 188.92 230.46 188.92 63.06 194.16 62.24 194.16 230.46"/>
      </g>
      <path class="cls-24" d="M171.49,221.08c3.86-3.73,9.99-3.73,13.85,0l7.94,7.68,14.87,14.38h-59.47l14.87-14.38,7.94-7.68Z"/>
      <g>
        <path class="cls-7" d="M415.17,230.46h-10.83c0-3,2.43-5.41,5.41-5.41,1.29,0,2.47,.44,3.4,1.18,1.24,.99,2.02,2.51,2.02,4.23Z"/>
        <path class="cls-11" d="M409.76,230.46h-19.21c0-3.05,1.41-5.74,3.63-7.5,1.64-1.31,3.7-2.09,5.97-2.09,5.31,0,9.62,4.28,9.62,9.59Z"/>
        <path class="cls-26" d="M396.71,230.46h-12.43c0-3.44,2.79-6.22,6.22-6.22,1.49,0,2.84,.51,3.9,1.35,1.42,1.14,2.32,2.89,2.32,4.86Z"/>
      </g>
      <path class="cls-15" d="M292.93,75.39c-42.3,7.96-70.3,48.94-62.32,91.32,7.97,42.34,48.94,70.3,91.24,62.34,3.4-.64,6.68-1.47,9.83-2.6,33.47-10.86,55.62-43.07,53.79-78.11-.12-3.5-.53-7.03-1.2-10.55-7.97-42.38-48.96-70.38-91.34-62.4Zm-54.56,89.86c-1.88-10-1.51-19.93,.72-29.22l49.91,84.04c-25.16-6.87-45.49-27.53-50.63-54.82Zm90.88,53.83c-2.85,.91-5.82,1.67-8.86,2.25-6.76,1.27-13.47,1.5-19.98,.82l3.38-23.42h.04s5.89-40.68,5.89-40.68l32.2,54.18c.22,.29,.48,.57,.69,.82-4.18,2.44-8.65,4.45-13.37,6.04Zm-18.39-101.03c4.12-.98,7.76-2.12,7.76-2.12,3.69-1.11,2.17-6.54-1.51-5.6,0,0-11.04,2.99-18.24,4.34-6.76,1.27-18.37,2.55-18.37,2.55-3.73,.45-3.13,6.27,.67,5.76,0,0,3.56-.21,7.36-.72l16.31,27.47-6.59,48.18-39.25-70.09c4.16-.99,7.8-2.13,7.8-2.13,3.61-1.09,2.17-6.54-1.51-5.6,0,0-11,2.98-18.24,4.34-1.32,.25-2.85,.49-4.46,.76,8.8-21.05,27.72-37.41,51.81-41.94,18.01-3.39,35.67,.41,50.06,9.31-.32,.06-.61,.07-.93,.13-6.8,1.28-10.49,8.11-9.29,14.47,1.07,5.68,5.25,9.87,9.8,14.89,3.51,4.1,7.7,9.45,9.31,17.97,1.11,5.92,.75,13.7-1.05,23.28l-2.59,24.35-38.87-69.59Zm42.5,87.38l2.49-16.92,7.11-48.07c2.11-10.59,1.91-18.71,.59-25.72-.47-2.52-1.09-4.89-1.78-7.04,7.25,8.83,12.46,19.53,14.73,31.58,.6,3.2,.99,6.36,1.17,9.52,1.08,22.05-8.31,42.83-24.31,56.66Z"/>
      <ellipse class="cls-2" cx="307.43" cy="152.3" rx="78.85" ry="77.86"/>
    </g>
  </g>
</svg>