<?xml version="1.0" encoding="UTF-8"?>
<svg id="Layer_2" data-name="Layer 2" xmlns="http://www.w3.org/2000/svg" viewBox="0 0 547.54 319.95">
  <defs>
    <style>
      .cls-1, .cls-2, .cls-3, .cls-4, .cls-5, .cls-6 {
        fill: none;
      }

      .cls-1, .cls-2, .cls-3, .cls-6 {
        stroke-linecap: round;
        stroke-linejoin: round;
      }

      .cls-1, .cls-4 {
        stroke: #103349;
      }

      .cls-7 {
        font-family: Jost-Bold, Jost;
        font-size: 12px;
        font-weight: 700;
      }

      .cls-7, .cls-8 {
        fill: #103349;
      }

      .cls-9 {
        fill: #02684d;
      }

      .cls-10 {
        fill: #046f77;
      }

      .cls-11 {
        fill: #025640;
      }

      .cls-12 {
        fill: #018595;
      }

      .cls-13 {
        fill: #008162;
      }

      .cls-14 {
        fill: #f1c829;
      }

      .cls-15 {
        fill: #f1ad14;
      }

      .cls-16 {
        fill: #e3c032;
      }

      .cls-17, .cls-18 {
        fill: #fff;
      }

      .cls-19 {
        fill: #ffdd52;
      }

      .cls-20 {
        fill: #7dcccb;
      }

      .cls-21 {
        fill: #7bcbca;
      }

      .cls-22 {
        fill: #72afb2;
      }

      .cls-23 {
        fill: #baf1e7;
      }

      .cls-24, .cls-25 {
        fill: #a6d4d9;
      }

      .cls-26 {
        fill: #d44f47;
      }

      .cls-27 {
        fill: #e19e33;
      }

      .cls-28 {
        fill: #215468;
      }

      .cls-29 {
        fill: #13b68b;
      }

      .cls-30 {
        fill: #1a4c66;
      }

      .cls-31 {
        fill: #6ee97d;
      }

      .cls-32 {
        fill: #39b44c;
      }

      .cls-33 {
        fill: #578a8d;
      }

      .cls-34 {
        fill: #3b82a2;
      }

      .cls-35 {
        fill: #77a6a9;
      }

      .cls-2, .cls-3 {
        stroke-width: .5px;
      }

      .cls-2, .cls-6 {
        stroke: #e3c032;
      }

      .cls-3 {
        stroke: #0f758b;
      }

      .cls-4, .cls-5 {
        stroke-miterlimit: 10;
      }

      .cls-5 {
        stroke: #fff;
      }

      .cls-6 {
        stroke-width: .84px;
      }

      .cls-25 {
        opacity: .57;
      }

      .cls-18 {
        opacity: .5;
      }
    </style>
  </defs>
  <g id="Layer_1-2" data-name="Layer 1">
    <g>
      <path class="cls-23" d="M85.26,237.01c0-120.23,97.46-217.69,217.69-217.69s217.69,97.46,217.69,217.69"/>
      <g>
        <rect class="cls-26" x="127.54" y="15.73" width="3.16" height="87.49"/>
        <rect class="cls-17" x="127.54" y="58.33" width="3.16" height="44.89"/>
        <rect class="cls-17" x="127.54" y="25.56" width="3.16" height="8.17"/>
        <rect class="cls-17" x="127.54" y="41.95" width="3.16" height="8.17"/>
        <rect class="cls-35" x="97.03" y="97.96" width="12.28" height="132.61"/>
        <rect class="cls-35" x="103.17" y="85.72" width="12.28" height="144.85"/>
        <polygon class="cls-35" points="144.74 197.13 112.65 197.13 112.65 66.31 148.74 66.31 144.74 197.13"/>
        <polygon class="cls-24" points="144.08 230.57 109.31 230.57 109.31 72.54 152.08 72.54 144.08 230.57"/>
        <g>
          <g>
            <g>
              <g>
                <rect class="cls-12" x="125.43" y="90.5" width="4.41" height="8.18"/>
                <rect class="cls-12" x="131.25" y="90.5" width="4.41" height="8.18"/>
              </g>
              <g>
                <rect class="cls-12" x="125.43" y="101.74" width="4.41" height="8.18"/>
                <rect class="cls-12" x="131.25" y="101.74" width="4.41" height="8.18"/>
              </g>
              <g>
                <rect class="cls-12" x="125.43" y="124.22" width="4.41" height="8.18"/>
                <rect class="cls-12" x="131.25" y="124.22" width="4.41" height="8.18"/>
              </g>
              <g>
                <rect class="cls-12" x="125.43" y="112.98" width="4.41" height="8.18"/>
                <rect class="cls-12" x="131.25" y="112.98" width="4.41" height="8.18"/>
              </g>
            </g>
            <g>
              <g>
                <rect class="cls-12" x="125.43" y="140.02" width="4.41" height="8.18"/>
                <rect class="cls-12" x="131.25" y="140.02" width="4.41" height="8.18"/>
              </g>
              <g>
                <rect class="cls-12" x="125.43" y="151.27" width="4.41" height="8.18"/>
                <rect class="cls-12" x="131.25" y="151.27" width="4.41" height="8.18"/>
              </g>
              <g>
                <rect class="cls-12" x="125.43" y="173.75" width="4.41" height="8.18"/>
                <rect class="cls-12" x="131.25" y="173.75" width="4.41" height="8.18"/>
              </g>
              <g>
                <rect class="cls-12" x="125.43" y="162.51" width="4.41" height="8.18"/>
                <rect class="cls-12" x="131.25" y="162.51" width="4.41" height="8.18"/>
              </g>
            </g>
          </g>
          <g>
            <g>
              <rect class="cls-12" x="119.41" y="90.5" width="4.41" height="8.18"/>
              <rect class="cls-12" x="119.41" y="101.74" width="4.41" height="8.18"/>
              <rect class="cls-12" x="119.41" y="124.22" width="4.41" height="8.18"/>
              <rect class="cls-12" x="119.41" y="112.98" width="4.41" height="8.18"/>
            </g>
            <g>
              <rect class="cls-12" x="119.41" y="140.02" width="4.41" height="8.18"/>
              <rect class="cls-12" x="119.41" y="151.27" width="4.41" height="8.18"/>
              <rect class="cls-12" x="119.41" y="173.75" width="4.41" height="8.18"/>
              <rect class="cls-12" x="119.41" y="162.51" width="4.41" height="8.18"/>
            </g>
          </g>
        </g>
      </g>
      <g>
        <g>
          <rect class="cls-24" x="234.27" y="86.31" width="17.87" height="144.15"/>
          <rect class="cls-17" x="221.63" y="86.31" width="17.57" height="144.15"/>
        </g>
        <g>
          <g>
            <g>
              <g>
                <rect class="cls-12" x="228.69" y="94.27" width="3.6" height="10.73"/>
                <rect class="cls-12" x="233.44" y="94.27" width="3.6" height="10.73"/>
              </g>
              <g>
                <rect class="cls-12" x="228.69" y="109" width="3.6" height="10.73"/>
                <rect class="cls-12" x="233.44" y="109" width="3.6" height="10.73"/>
              </g>
              <g>
                <rect class="cls-12" x="228.69" y="138.46" width="3.6" height="10.73"/>
                <rect class="cls-12" x="233.44" y="138.46" width="3.6" height="10.73"/>
              </g>
              <g>
                <rect class="cls-12" x="228.69" y="123.73" width="3.6" height="10.73"/>
                <rect class="cls-12" x="233.44" y="123.73" width="3.6" height="10.73"/>
              </g>
            </g>
            <g>
              <g>
                <rect class="cls-12" x="228.69" y="159.17" width="3.6" height="10.73"/>
                <rect class="cls-12" x="233.44" y="159.17" width="3.6" height="10.73"/>
              </g>
              <g>
                <rect class="cls-12" x="228.69" y="173.91" width="3.6" height="10.73"/>
                <rect class="cls-12" x="233.44" y="173.91" width="3.6" height="10.73"/>
              </g>
              <g>
                <rect class="cls-12" x="228.69" y="203.37" width="3.6" height="10.73"/>
                <rect class="cls-12" x="233.44" y="203.37" width="3.6" height="10.73"/>
              </g>
              <g>
                <rect class="cls-12" x="228.69" y="188.64" width="3.6" height="10.73"/>
                <rect class="cls-12" x="233.44" y="188.64" width="3.6" height="10.73"/>
              </g>
            </g>
          </g>
          <g>
            <g>
              <rect class="cls-12" x="223.78" y="94.27" width="3.6" height="10.73"/>
              <rect class="cls-12" x="223.78" y="109" width="3.6" height="10.73"/>
              <rect class="cls-12" x="223.78" y="138.46" width="3.6" height="10.73"/>
              <rect class="cls-12" x="223.78" y="123.73" width="3.6" height="10.73"/>
            </g>
            <g>
              <rect class="cls-12" x="223.78" y="159.17" width="3.6" height="10.73"/>
              <rect class="cls-12" x="223.78" y="173.91" width="3.6" height="10.73"/>
              <rect class="cls-12" x="223.78" y="203.37" width="3.6" height="10.73"/>
              <rect class="cls-12" x="223.78" y="188.64" width="3.6" height="10.73"/>
            </g>
          </g>
        </g>
        <g>
          <g>
            <g>
              <rect class="cls-12" x="243.36" y="94.27" width="1.76" height="10.24"/>
              <rect class="cls-12" x="245.67" y="94.27" width="1.76" height="10.24"/>
            </g>
            <g>
              <rect class="cls-12" x="243.36" y="108.33" width="1.76" height="10.24"/>
              <rect class="cls-12" x="245.67" y="108.33" width="1.76" height="10.24"/>
            </g>
            <g>
              <rect class="cls-12" x="243.36" y="136.47" width="1.76" height="10.24"/>
              <rect class="cls-12" x="245.67" y="136.47" width="1.76" height="10.24"/>
            </g>
            <g>
              <rect class="cls-12" x="243.36" y="122.4" width="1.76" height="10.24"/>
              <rect class="cls-12" x="245.67" y="122.4" width="1.76" height="10.24"/>
            </g>
          </g>
          <g>
            <g>
              <rect class="cls-12" x="243.36" y="156.24" width="1.76" height="10.24"/>
              <rect class="cls-12" x="245.67" y="156.24" width="1.76" height="10.24"/>
            </g>
            <g>
              <rect class="cls-12" x="243.36" y="170.31" width="1.76" height="10.24"/>
              <rect class="cls-12" x="245.67" y="170.31" width="1.76" height="10.24"/>
            </g>
            <g>
              <rect class="cls-12" x="243.36" y="198.44" width="1.76" height="10.24"/>
              <rect class="cls-12" x="245.67" y="198.44" width="1.76" height="10.24"/>
            </g>
            <g>
              <rect class="cls-12" x="243.36" y="184.37" width="1.76" height="10.24"/>
              <rect class="cls-12" x="245.67" y="184.37" width="1.76" height="10.24"/>
            </g>
          </g>
        </g>
      </g>
      <g>
        <polygon class="cls-13" points="499.07 49.81 503.23 63.83 507.39 77.86 499.07 77.86 490.76 77.86 494.91 63.83 499.07 49.81"/>
        <rect class="cls-15" x="498.16" y="75.13" width="1.83" height="6.52"/>
      </g>
      <g>
        <circle class="cls-21" cx="133.17" cy="238.37" r="61.27"/>
        <circle class="cls-21" cx="206.77" cy="200.63" r="61.27"/>
        <circle class="cls-21" cx="297.85" cy="166.51" r="61.27"/>
      </g>
      <path class="cls-28" d="M302.74,164.09l22.71-27.63c28.52-34.7,71.08-54.81,116-54.81h94.14v95.49h-207.15l-25.71-13.05Z"/>
      <path class="cls-32" d="M241.84,195.38l12.58-16.87c11.05-14.82,28.46-23.55,46.95-23.55h90.38c19.3,0,37.35-9.51,48.28-25.41h0c10.92-15.91,28.98-25.41,48.28-25.41h47.3v87.62l-293.76,3.62Z"/>
      <circle class="cls-32" cx="196.69" cy="200.6" r="13.03"/>
      <circle class="cls-32" cx="218.55" cy="195.38" r="18.24"/>
      <path class="cls-12" d="M73.56,232.12l6.17-5.4c14.73-12.89,33.63-20,53.2-20h36.5c17.68,0,34.88-5.8,48.95-16.52h0c14.07-10.71,31.26-16.52,48.95-16.52h161.79c17.26,0,33.81-6.86,46.01-19.06h0c12.2-12.2,28.75-19.06,46.01-19.06h14.47v107.57H64.92l8.64-11.02Z"/>
      <path class="cls-12" d="M73.75,232.12l6.17-5.4c14.73-12.89,33.63-20,53.2-20h36.5c17.68,0,34.88-5.8,48.95-16.52h0c14.07-10.71,31.26-16.52,48.95-16.52h161.79c17.26,0,33.81-6.86,46.01-19.06h0c12.2-12.2,28.75-19.06,46.01-19.06h14.47v107.57H65.11l8.64-11.02Z"/>
      <polygon class="cls-23" points="535.79 314.33 11.94 314.33 11.94 230.46 303.32 230.46 535.79 230.46 535.79 314.33"/>
      <g>
        <g>
          <g>
            <path class="cls-13" d="M17.87,314.33c0-5.2,4.21-9.41,9.41-9.41s9.41,4.21,9.41,9.41"/>
            <path class="cls-13" d="M36.69,314.33c0-5.2,4.21-9.41,9.41-9.41s9.41,4.21,9.41,9.41"/>
            <path class="cls-13" d="M55.51,314.33c0-5.2,4.21-9.41,9.41-9.41s9.41,4.21,9.41,9.41"/>
            <path class="cls-13" d="M74.34,314.33c0-5.2,4.21-9.41,9.41-9.41s9.41,4.21,9.41,9.41"/>
          </g>
          <g>
            <path class="cls-13" d="M93.16,314.33c0-5.2,4.21-9.41,9.41-9.41s9.41,4.21,9.41,9.41"/>
            <path class="cls-13" d="M111.98,314.33c0-5.2,4.21-9.41,9.41-9.41s9.41,4.21,9.41,9.41"/>
            <path class="cls-13" d="M130.81,314.33c0-5.2,4.21-9.41,9.41-9.41s9.41,4.21,9.41,9.41"/>
            <path class="cls-13" d="M149.63,314.33c0-5.2,4.21-9.41,9.41-9.41s9.41,4.21,9.41,9.41"/>
          </g>
        </g>
        <g>
          <g>
            <g>
              <path class="cls-13" d="M168.45,314.33c0-5.2,4.21-9.41,9.41-9.41s9.41,4.21,9.41,9.41"/>
              <path class="cls-13" d="M187.28,314.33c0-5.2,4.21-9.41,9.41-9.41s9.41,4.21,9.41,9.41"/>
              <path class="cls-13" d="M206.1,314.33c0-5.2,4.21-9.41,9.41-9.41s9.41,4.21,9.41,9.41"/>
              <path class="cls-13" d="M224.92,314.33c0-5.2,4.21-9.41,9.41-9.41s9.41,4.21,9.41,9.41"/>
            </g>
            <g>
              <path class="cls-13" d="M243.75,314.33c0-5.2,4.21-9.41,9.41-9.41s9.41,4.21,9.41,9.41"/>
              <path class="cls-13" d="M262.57,314.33c0-5.2,4.21-9.41,9.41-9.41s9.41,4.21,9.41,9.41"/>
              <path class="cls-13" d="M281.39,314.33c0-5.2,4.21-9.41,9.41-9.41s9.41,4.21,9.41,9.41"/>
              <path class="cls-13" d="M300.22,314.33c0-5.2,4.21-9.41,9.41-9.41s9.41,4.21,9.41,9.41"/>
            </g>
          </g>
          <g>
            <g>
              <path class="cls-13" d="M319.04,314.33c0-5.2,4.21-9.41,9.41-9.41s9.41,4.21,9.41,9.41"/>
              <path class="cls-13" d="M337.86,314.33c0-5.2,4.21-9.41,9.41-9.41s9.41,4.21,9.41,9.41"/>
              <path class="cls-13" d="M356.69,314.33c0-5.2,4.21-9.41,9.41-9.41s9.41,4.21,9.41,9.41"/>
              <path class="cls-13" d="M375.51,314.33c0-5.2,4.21-9.41,9.41-9.41s9.41,4.21,9.41,9.41"/>
            </g>
            <g>
              <path class="cls-13" d="M394.33,314.33c0-5.2,4.21-9.41,9.41-9.41s9.41,4.21,9.41,9.41"/>
              <path class="cls-13" d="M413.16,314.33c0-5.2,4.21-9.41,9.41-9.41s9.41,4.21,9.41,9.41"/>
              <path class="cls-13" d="M431.98,314.33c0-5.2,4.21-9.41,9.41-9.41s9.41,4.21,9.41,9.41"/>
              <path class="cls-13" d="M450.81,314.33c0-5.2,4.21-9.41,9.41-9.41s9.41,4.21,9.41,9.41"/>
            </g>
          </g>
          <g>
            <path class="cls-13" d="M469.63,314.33c0-5.2,4.21-9.41,9.41-9.41s9.41,4.21,9.41,9.41"/>
            <path class="cls-13" d="M488.45,314.33c0-5.2,4.21-9.41,9.41-9.41s9.41,4.21,9.41,9.41"/>
            <path class="cls-13" d="M507.28,314.33c0-5.2,4.21-9.41,9.41-9.41s9.41,4.21,9.41,9.41"/>
          </g>
          <rect class="cls-32" x="6.38" y="312.05" width="534.78" height="7.91"/>
        </g>
      </g>
      <g>
        <g>
          <path class="cls-13" d="M284.13,173.69c0-5.2,4.21-9.41,9.41-9.41s9.41,4.21,9.41,9.41"/>
          <path class="cls-13" d="M302.95,173.69c0-5.2,4.21-9.41,9.41-9.41s9.41,4.21,9.41,9.41"/>
          <path class="cls-13" d="M321.78,173.69c0-5.2,4.21-9.41,9.41-9.41s9.41,4.21,9.41,9.41"/>
          <path class="cls-13" d="M340.6,173.69c0-5.2,4.21-9.41,9.41-9.41s9.41,4.21,9.41,9.41"/>
        </g>
        <g>
          <path class="cls-13" d="M359.42,173.69c0-5.2,4.21-9.41,9.41-9.41s9.41,4.21,9.41,9.41"/>
          <path class="cls-13" d="M378.25,173.69c0-5.2,4.21-9.41,9.41-9.41s9.41,4.21,9.41,9.41"/>
          <path class="cls-13" d="M397.07,173.69c0-5.2,4.21-9.41,9.41-9.41s9.41,4.21,9.41,9.41"/>
          <path class="cls-13" d="M415.89,173.69c0-5.2,4.21-9.41,9.41-9.41s9.41,4.21,9.41,9.41"/>
        </g>
      </g>
      <path class="cls-8" d="M74.1,220.4c2.96-2.86,7.66-2.86,10.62,0l6.09,5.89,11.39,11.02H56.62l11.39-11.02,6.09-5.89Z"/>
      <g>
        <line class="cls-3" x1="271.98" y1="173.98" x2="271.98" y2="193.93"/>
        <line class="cls-3" x1="274.41" y1="173.98" x2="274.41" y2="201.18"/>
        <line class="cls-3" x1="271.98" y1="196.15" x2="271.98" y2="198.69"/>
      </g>
      <g>
        <line class="cls-3" x1="261.33" y1="230.18" x2="261.33" y2="210.22"/>
        <line class="cls-3" x1="258.9" y1="230.18" x2="258.9" y2="202.98"/>
        <line class="cls-3" x1="261.33" y1="208" x2="261.33" y2="205.46"/>
      </g>
      <g>
        <line class="cls-3" x1="387.64" y1="230.18" x2="387.64" y2="210.22"/>
        <line class="cls-3" x1="385.21" y1="230.18" x2="385.21" y2="202.98"/>
        <line class="cls-3" x1="387.64" y1="208" x2="387.64" y2="205.46"/>
      </g>
      <g>
        <line class="cls-3" x1="519.23" y1="136.16" x2="519.23" y2="156.11"/>
        <line class="cls-3" x1="521.66" y1="136.16" x2="521.66" y2="163.36"/>
        <line class="cls-3" x1="519.23" y1="158.34" x2="519.23" y2="160.88"/>
      </g>
      <g>
        <line class="cls-3" x1="477.9" y1="152.5" x2="477.9" y2="172.45"/>
        <line class="cls-3" x1="480.33" y1="150.5" x2="480.33" y2="179.7"/>
        <line class="cls-3" x1="477.9" y1="174.67" x2="477.9" y2="177.21"/>
      </g>
      <g>
        <line class="cls-3" x1="525" y1="230.08" x2="525" y2="210.12"/>
        <line class="cls-3" x1="522.57" y1="230.08" x2="522.57" y2="202.88"/>
        <line class="cls-3" x1="525" y1="207.9" x2="525" y2="205.36"/>
      </g>
      <g>
        <line class="cls-3" x1="530.27" y1="230.08" x2="530.27" y2="210.12"/>
        <line class="cls-3" x1="527.84" y1="230.08" x2="527.84" y2="202.88"/>
        <line class="cls-3" x1="530.27" y1="207.9" x2="530.27" y2="205.36"/>
      </g>
      <g>
        <g>
          <line class="cls-3" x1="247.26" y1="230.18" x2="247.26" y2="210.22"/>
          <line class="cls-3" x1="244.83" y1="230.18" x2="244.83" y2="202.98"/>
          <line class="cls-3" x1="247.26" y1="208" x2="247.26" y2="205.46"/>
        </g>
        <line class="cls-3" x1="241.84" y1="230.18" x2="241.84" y2="215.2"/>
      </g>
      <g>
        <g>
          <g>
            <line class="cls-3" x1="290.81" y1="230.18" x2="290.81" y2="220.22"/>
            <line class="cls-3" x1="293.24" y1="230.18" x2="293.24" y2="207.98"/>
            <line class="cls-3" x1="290.81" y1="218" x2="290.81" y2="215.46"/>
          </g>
          <line class="cls-3" x1="296.23" y1="230.18" x2="296.23" y2="220.2"/>
        </g>
        <line class="cls-3" x1="302.93" y1="209.94" x2="302.93" y2="230.18"/>
      </g>
      <g>
        <g>
          <g>
            <line class="cls-3" x1="119.14" y1="230.18" x2="119.14" y2="220.22"/>
            <line class="cls-3" x1="121.57" y1="230.18" x2="121.57" y2="213.98"/>
            <line class="cls-3" x1="119.14" y1="218" x2="119.14" y2="215.46"/>
          </g>
          <line class="cls-3" x1="124.56" y1="230.18" x2="124.56" y2="220.2"/>
        </g>
        <line class="cls-3" x1="131.26" y1="214.94" x2="131.26" y2="230.18"/>
      </g>
      <g>
        <g>
          <g>
            <line class="cls-3" x1="339.76" y1="173.98" x2="339.76" y2="183.93"/>
            <line class="cls-3" x1="337.33" y1="173.98" x2="337.33" y2="196.18"/>
            <line class="cls-3" x1="339.76" y1="186.15" x2="339.76" y2="188.69"/>
          </g>
          <line class="cls-3" x1="334.34" y1="173.98" x2="334.34" y2="183.95"/>
        </g>
        <line class="cls-3" x1="327.64" y1="194.21" x2="327.64" y2="173.98"/>
      </g>
      <g>
        <g>
          <g>
            <line class="cls-3" x1="412.45" y1="229.91" x2="412.45" y2="219.96"/>
            <line class="cls-3" x1="414.88" y1="229.91" x2="414.88" y2="207.71"/>
            <line class="cls-3" x1="412.45" y1="217.74" x2="412.45" y2="215.2"/>
          </g>
          <line class="cls-3" x1="417.87" y1="229.91" x2="417.87" y2="219.94"/>
        </g>
        <line class="cls-3" x1="424.57" y1="209.68" x2="424.57" y2="229.91"/>
      </g>
      <g>
        <g>
          <g>
            <line class="cls-3" x1="472.98" y1="229.91" x2="472.98" y2="219.96"/>
            <line class="cls-3" x1="475.41" y1="229.91" x2="475.41" y2="207.71"/>
            <line class="cls-3" x1="472.98" y1="217.74" x2="472.98" y2="215.2"/>
          </g>
          <line class="cls-3" x1="478.4" y1="229.91" x2="478.4" y2="219.94"/>
        </g>
        <line class="cls-3" x1="485.1" y1="209.68" x2="485.1" y2="229.91"/>
      </g>
      <g>
        <line class="cls-3" x1="400.06" y1="200.6" x2="400.06" y2="196.15"/>
        <line class="cls-3" x1="403.35" y1="195.38" x2="403.35" y2="190.93"/>
      </g>
      <g>
        <line class="cls-3" x1="503.98" y1="220.29" x2="503.98" y2="215.84"/>
        <line class="cls-3" x1="507.28" y1="215.07" x2="507.28" y2="210.62"/>
      </g>
      <g>
        <line class="cls-3" x1="449.16" y1="188.76" x2="449.16" y2="184.31"/>
        <line class="cls-3" x1="452.45" y1="183.54" x2="452.45" y2="179.09"/>
      </g>
      <g>
        <line class="cls-3" x1="316.35" y1="212.83" x2="316.35" y2="208.38"/>
        <line class="cls-3" x1="319.64" y1="207.62" x2="319.64" y2="203.17"/>
      </g>
      <g>
        <line class="cls-3" x1="496.22" y1="170.55" x2="496.22" y2="166.1"/>
        <line class="cls-3" x1="499.51" y1="165.33" x2="499.51" y2="160.88"/>
      </g>
      <g>
        <line class="cls-3" x1="522.57" y1="196.3" x2="522.57" y2="191.85"/>
        <line class="cls-3" x1="525.86" y1="191.09" x2="525.86" y2="186.64"/>
      </g>
      <g>
        <line class="cls-3" x1="221.84" y1="195" x2="221.84" y2="199.45"/>
        <line class="cls-3" x1="218.55" y1="200.22" x2="218.55" y2="204.67"/>
      </g>
      <g>
        <line class="cls-3" x1="209.8" y1="215.39" x2="209.8" y2="219.84"/>
        <line class="cls-3" x1="206.51" y1="220.61" x2="206.51" y2="225.06"/>
      </g>
      <g>
        <line class="cls-3" x1="107.74" y1="214.24" x2="107.74" y2="218.69"/>
        <line class="cls-3" x1="104.45" y1="219.46" x2="104.45" y2="223.91"/>
      </g>
      <g>
        <line class="cls-3" x1="154.67" y1="212.09" x2="154.67" y2="216.54"/>
        <line class="cls-3" x1="151.37" y1="217.31" x2="151.37" y2="221.76"/>
      </g>
      <g>
        <path class="cls-13" d="M453.47,162.24h-5.47c0-1.51,1.23-2.73,2.73-2.73,.65,0,1.25,.22,1.71,.6,.62,.5,1.02,1.27,1.02,2.14Z"/>
        <path class="cls-13" d="M456.9,162.24h-5.47c0-.87,.4-1.64,1.03-2.14,.47-.37,1.05-.6,1.7-.6,1.51,0,2.74,1.22,2.74,2.73Z"/>
      </g>
      <g>
        <path class="cls-13" d="M396.3,160.97h-5.47c0-1.51,1.23-2.73,2.73-2.73,.65,0,1.25,.22,1.71,.6,.62,.5,1.02,1.27,1.02,2.14Z"/>
        <path class="cls-13" d="M399.73,160.97h-5.47c0-.87,.4-1.64,1.03-2.14,.47-.37,1.05-.6,1.7-.6,1.51,0,2.74,1.22,2.74,2.73Z"/>
      </g>
      <g>
        <g>
          <path class="cls-27" d="M348.98,138.89h-5.47c0-1.51,1.23-2.73,2.73-2.73,.65,0,1.25,.22,1.71,.6,.62,.5,1.02,1.27,1.02,2.14Z"/>
          <path class="cls-27" d="M352.4,138.89h-5.47c0-.87,.4-1.64,1.03-2.14,.47-.37,1.05-.6,1.7-.6,1.51,0,2.74,1.22,2.74,2.73Z"/>
        </g>
        <path class="cls-16" d="M364.63,138.89h-5.47c0-.87,.4-1.64,1.03-2.14,.47-.37,1.05-.6,1.7-.6,1.51,0,2.74,1.22,2.74,2.73Z"/>
      </g>
      <g>
        <g>
          <path class="cls-27" d="M366.35,127.25h-5.47c0-1.51,1.23-2.73,2.73-2.73,.65,0,1.25,.22,1.71,.6,.62,.5,1.02,1.27,1.02,2.14Z"/>
          <path class="cls-27" d="M369.78,127.25h-5.47c0-.87,.4-1.64,1.03-2.14,.47-.37,1.05-.6,1.7-.6,1.51,0,2.74,1.22,2.74,2.73Z"/>
        </g>
        <path class="cls-27" d="M373.86,127.25h-5.47c0-.87,.4-1.64,1.03-2.14,.47-.37,1.05-.6,1.7-.6,1.51,0,2.74,1.22,2.74,2.73Z"/>
      </g>
      <g>
        <path class="cls-13" d="M498.39,125.88h-5.47c0-1.51,1.23-2.73,2.73-2.73,.65,0,1.25,.22,1.71,.6,.62,.5,1.02,1.27,1.02,2.14Z"/>
        <path class="cls-13" d="M501.81,125.88h-5.47c0-.87,.4-1.64,1.03-2.14,.47-.37,1.05-.6,1.7-.6,1.51,0,2.74,1.22,2.74,2.73Z"/>
      </g>
      <g>
        <path class="cls-13" d="M512.14,116.79h-10.83c0-3,2.43-5.41,5.41-5.41,1.29,0,2.47,.44,3.4,1.18,1.24,.99,2.02,2.51,2.02,4.23Z"/>
        <path class="cls-13" d="M526.79,116.79h-19.21c0-3.05,1.41-5.74,3.63-7.5,1.64-1.31,3.7-2.09,5.97-2.09,5.31,0,9.62,4.28,9.62,9.59Z"/>
      </g>
      <g>
        <path class="cls-13" d="M519.48,125.88h-5.47c0-1.51,1.23-2.73,2.73-2.73,.65,0,1.25,.22,1.71,.6,.62,.5,1.02,1.27,1.02,2.14Z"/>
        <path class="cls-13" d="M522.9,125.88h-5.47c0-.87,.4-1.64,1.03-2.14,.47-.37,1.05-.6,1.7-.6,1.51,0,2.74,1.22,2.74,2.73Z"/>
      </g>
      <g>
        <circle class="cls-27" cx="245.8" cy="171.94" r="7.44"/>
        <rect class="cls-16" x="245.37" y="172.6" width=".86" height="13.55"/>
      </g>
      <circle class="cls-14" cx="229.35" cy="50.36" r="23.44"/>
      <path class="cls-18" d="M376.68,73.82h-78.73c-.07-.66-.1-1.33-.1-2,0-11.85,9.61-21.46,21.46-21.46,8.31,0,15.53,4.73,19.08,11.65,1.39-.4,2.85-.61,4.37-.61,5.99,0,11.22,3.31,13.94,8.2,2.26-1.79,5.13-2.87,8.24-2.87,5.09,0,9.52,2.87,11.74,7.09Z"/>
      <path class="cls-17" d="M155.12,108.79h55.08c.05-.46,.07-.93,.07-1.4,0-8.29-6.72-15.01-15.01-15.01-5.81,0-10.86,3.31-13.35,8.15-.97-.28-1.99-.43-3.06-.43-4.19,0-7.85,2.32-9.75,5.74-1.58-1.25-3.59-2.01-5.76-2.01-3.56,0-6.66,2.01-8.21,4.96Z"/>
      <circle class="cls-11" cx="294.62" cy="166.87" r="1.08"/>
      <circle class="cls-11" cx="286.9" cy="171.08" r="1.52"/>
      <g>
        <rect class="cls-17" x="216.95" y="191.68" width="23.73" height="38.67"/>
        <polygon class="cls-24" points="256.72 230.35 240.69 230.35 240.69 191.68 248.05 182.07 256.72 191.68 256.72 230.35"/>
        <path class="cls-8" d="M241.04,192.71h-26.02c-.55,0-.85-.66-.48-1.07l8.57-9.57h26.58l-8.65,10.64Z"/>
        <path class="cls-8" d="M248.19,183.22l8.56,9.49h1.67c.3,0,.48-.34,.3-.59l-9.03-10.06"/>
        <rect class="cls-8" x="241.55" y="179.38" width="3.66" height="3.66"/>
        <g>
          <rect class="cls-12" x="219.62" y="197.26" width="3.53" height="6.45"/>
          <rect class="cls-12" x="224.61" y="197.26" width="3.53" height="6.45"/>
          <rect class="cls-12" x="229.6" y="197.26" width="3.53" height="6.45"/>
          <rect class="cls-12" x="234.59" y="197.26" width="3.53" height="6.45"/>
        </g>
        <g>
          <rect class="cls-12" x="219.62" y="205.5" width="3.53" height="6.45"/>
          <rect class="cls-12" x="224.61" y="205.5" width="3.53" height="6.45"/>
          <rect class="cls-12" x="229.6" y="205.5" width="3.53" height="6.45"/>
          <rect class="cls-12" x="234.59" y="205.5" width="3.53" height="6.45"/>
        </g>
        <path class="cls-27" d="M229.6,216.11h0c3.04,0,5.51,2.47,5.51,5.51v8.73h-11.01v-8.73c0-3.04,2.47-5.51,5.51-5.51Z"/>
      </g>
      <rect class="cls-24" x="291.7" y="83.72" width="29.2" height="146.74"/>
      <rect class="cls-17" x="271.04" y="83.72" width="28.71" height="146.74"/>
      <rect class="cls-24" x="277.57" y="92.95" width="15.65" height="137.51"/>
      <rect class="cls-17" x="266.59" y="97.85" width="12.28" height="132.61"/>
      <rect class="cls-17" x="291.71" y="97.85" width="12.28" height="132.61"/>
      <rect class="cls-25" x="266.59" y="97.85" width="12.28" height="132.61"/>
      <rect class="cls-25" x="291.71" y="97.85" width="12.28" height="132.61"/>
      <rect class="cls-24" x="312.24" y="98.15" width="12.28" height="132.61"/>
      <g>
        <g>
          <g>
            <rect class="cls-12" x="282.07" y="102.74" width="2.87" height="10.42"/>
            <rect class="cls-12" x="285.85" y="102.74" width="2.87" height="10.42"/>
          </g>
          <g>
            <rect class="cls-12" x="282.07" y="117.06" width="2.87" height="10.42"/>
            <rect class="cls-12" x="285.85" y="117.06" width="2.87" height="10.42"/>
          </g>
          <g>
            <rect class="cls-12" x="282.07" y="145.7" width="2.87" height="10.42"/>
            <rect class="cls-12" x="285.85" y="145.7" width="2.87" height="10.42"/>
          </g>
          <g>
            <rect class="cls-12" x="282.07" y="131.38" width="2.87" height="10.42"/>
            <rect class="cls-12" x="285.85" y="131.38" width="2.87" height="10.42"/>
          </g>
        </g>
        <g>
          <g>
            <rect class="cls-12" x="282.07" y="165.83" width="2.87" height="10.42"/>
            <rect class="cls-12" x="285.85" y="165.83" width="2.87" height="10.42"/>
          </g>
          <g>
            <rect class="cls-12" x="282.07" y="180.15" width="2.87" height="10.42"/>
            <rect class="cls-12" x="285.85" y="180.15" width="2.87" height="10.42"/>
          </g>
          <g>
            <rect class="cls-12" x="282.07" y="208.78" width="2.87" height="10.42"/>
            <rect class="cls-12" x="285.85" y="208.78" width="2.87" height="10.42"/>
          </g>
          <g>
            <rect class="cls-12" x="282.07" y="194.46" width="2.87" height="10.42"/>
            <rect class="cls-12" x="285.85" y="194.46" width="2.87" height="10.42"/>
          </g>
        </g>
      </g>
      <g>
        <g>
          <g>
            <rect class="cls-12" x="309.64" y="102.74" width="2.87" height="10.42"/>
            <rect class="cls-12" x="313.42" y="102.74" width="2.87" height="10.42"/>
          </g>
          <g>
            <rect class="cls-12" x="309.64" y="117.06" width="2.87" height="10.42"/>
            <rect class="cls-12" x="313.42" y="117.06" width="2.87" height="10.42"/>
          </g>
          <g>
            <rect class="cls-12" x="309.64" y="145.7" width="2.87" height="10.42"/>
            <rect class="cls-12" x="313.42" y="145.7" width="2.87" height="10.42"/>
          </g>
          <g>
            <rect class="cls-12" x="309.64" y="131.38" width="2.87" height="10.42"/>
            <rect class="cls-12" x="313.42" y="131.38" width="2.87" height="10.42"/>
          </g>
        </g>
        <g>
          <g>
            <rect class="cls-12" x="309.64" y="165.83" width="2.87" height="10.42"/>
            <rect class="cls-12" x="313.42" y="165.83" width="2.87" height="10.42"/>
          </g>
          <g>
            <rect class="cls-12" x="309.64" y="180.15" width="2.87" height="10.42"/>
            <rect class="cls-12" x="313.42" y="180.15" width="2.87" height="10.42"/>
          </g>
          <g>
            <rect class="cls-12" x="309.64" y="208.78" width="2.87" height="10.42"/>
            <rect class="cls-12" x="313.42" y="208.78" width="2.87" height="10.42"/>
          </g>
          <g>
            <rect class="cls-12" x="309.64" y="194.46" width="2.87" height="10.42"/>
            <rect class="cls-12" x="313.42" y="194.46" width="2.87" height="10.42"/>
          </g>
        </g>
      </g>
      <g>
        <g>
          <rect class="cls-24" x="420.55" y="120.46" width="21.89" height="110"/>
          <rect class="cls-17" x="405.07" y="120.46" width="21.52" height="110"/>
        </g>
        <g>
          <g>
            <g>
              <g>
                <rect class="cls-12" x="413.73" y="126.54" width="4.41" height="8.18"/>
                <rect class="cls-12" x="419.54" y="126.54" width="4.41" height="8.18"/>
              </g>
              <g>
                <rect class="cls-12" x="413.73" y="137.78" width="4.41" height="8.18"/>
                <rect class="cls-12" x="419.54" y="137.78" width="4.41" height="8.18"/>
              </g>
              <g>
                <rect class="cls-12" x="413.73" y="160.26" width="4.41" height="8.18"/>
                <rect class="cls-12" x="419.54" y="160.26" width="4.41" height="8.18"/>
              </g>
              <g>
                <rect class="cls-12" x="413.73" y="149.02" width="4.41" height="8.18"/>
                <rect class="cls-12" x="419.54" y="149.02" width="4.41" height="8.18"/>
              </g>
            </g>
            <g>
              <g>
                <rect class="cls-12" x="413.73" y="176.06" width="4.41" height="8.18"/>
                <rect class="cls-12" x="419.54" y="176.06" width="4.41" height="8.18"/>
              </g>
              <g>
                <rect class="cls-12" x="413.73" y="187.31" width="4.41" height="8.18"/>
                <rect class="cls-12" x="419.54" y="187.31" width="4.41" height="8.18"/>
              </g>
              <g>
                <rect class="cls-12" x="413.73" y="209.79" width="4.41" height="8.18"/>
                <rect class="cls-12" x="419.54" y="209.79" width="4.41" height="8.18"/>
              </g>
              <g>
                <rect class="cls-12" x="413.73" y="198.55" width="4.41" height="8.18"/>
                <rect class="cls-12" x="419.54" y="198.55" width="4.41" height="8.18"/>
              </g>
            </g>
          </g>
          <g>
            <g>
              <rect class="cls-12" x="407.71" y="126.54" width="4.41" height="8.18"/>
              <rect class="cls-12" x="407.71" y="137.78" width="4.41" height="8.18"/>
              <rect class="cls-12" x="407.71" y="160.26" width="4.41" height="8.18"/>
              <rect class="cls-12" x="407.71" y="149.02" width="4.41" height="8.18"/>
            </g>
            <g>
              <rect class="cls-12" x="407.71" y="176.06" width="4.41" height="8.18"/>
              <rect class="cls-12" x="407.71" y="187.31" width="4.41" height="8.18"/>
              <rect class="cls-12" x="407.71" y="209.79" width="4.41" height="8.18"/>
              <rect class="cls-12" x="407.71" y="198.55" width="4.41" height="8.18"/>
            </g>
          </g>
        </g>
        <g>
          <g>
            <g>
              <rect class="cls-12" x="431.69" y="126.54" width="2.15" height="7.81"/>
              <rect class="cls-12" x="434.52" y="126.54" width="2.15" height="7.81"/>
            </g>
            <g>
              <rect class="cls-12" x="431.69" y="137.27" width="2.15" height="7.81"/>
              <rect class="cls-12" x="434.52" y="137.27" width="2.15" height="7.81"/>
            </g>
            <g>
              <rect class="cls-12" x="431.69" y="158.74" width="2.15" height="7.81"/>
              <rect class="cls-12" x="434.52" y="158.74" width="2.15" height="7.81"/>
            </g>
            <g>
              <rect class="cls-12" x="431.69" y="148" width="2.15" height="7.81"/>
              <rect class="cls-12" x="434.52" y="148" width="2.15" height="7.81"/>
            </g>
          </g>
          <g>
            <g>
              <rect class="cls-12" x="431.69" y="173.83" width="2.15" height="7.81"/>
              <rect class="cls-12" x="434.52" y="173.83" width="2.15" height="7.81"/>
            </g>
            <g>
              <rect class="cls-12" x="431.69" y="184.56" width="2.15" height="7.81"/>
              <rect class="cls-12" x="434.52" y="184.56" width="2.15" height="7.81"/>
            </g>
            <g>
              <rect class="cls-12" x="431.69" y="206.03" width="2.15" height="7.81"/>
              <rect class="cls-12" x="434.52" y="206.03" width="2.15" height="7.81"/>
            </g>
            <g>
              <rect class="cls-12" x="431.69" y="195.29" width="2.15" height="7.81"/>
              <rect class="cls-12" x="434.52" y="195.29" width="2.15" height="7.81"/>
            </g>
          </g>
        </g>
      </g>
      <g>
        <g>
          <rect class="cls-24" x="188.82" y="120.46" width="21.89" height="110"/>
          <rect class="cls-17" x="173.34" y="120.46" width="21.52" height="110"/>
        </g>
        <g>
          <g>
            <g>
              <g>
                <rect class="cls-12" x="181.99" y="126.54" width="4.41" height="8.18"/>
                <rect class="cls-12" x="187.81" y="126.54" width="4.41" height="8.18"/>
              </g>
              <g>
                <rect class="cls-12" x="181.99" y="137.78" width="4.41" height="8.18"/>
                <rect class="cls-12" x="187.81" y="137.78" width="4.41" height="8.18"/>
              </g>
              <g>
                <rect class="cls-12" x="181.99" y="160.26" width="4.41" height="8.18"/>
                <rect class="cls-12" x="187.81" y="160.26" width="4.41" height="8.18"/>
              </g>
              <g>
                <rect class="cls-12" x="181.99" y="149.02" width="4.41" height="8.18"/>
                <rect class="cls-12" x="187.81" y="149.02" width="4.41" height="8.18"/>
              </g>
            </g>
            <g>
              <g>
                <rect class="cls-12" x="181.99" y="176.06" width="4.41" height="8.18"/>
                <rect class="cls-12" x="187.81" y="176.06" width="4.41" height="8.18"/>
              </g>
              <g>
                <rect class="cls-12" x="181.99" y="187.31" width="4.41" height="8.18"/>
                <rect class="cls-12" x="187.81" y="187.31" width="4.41" height="8.18"/>
              </g>
              <g>
                <rect class="cls-12" x="181.99" y="209.79" width="4.41" height="8.18"/>
                <rect class="cls-12" x="187.81" y="209.79" width="4.41" height="8.18"/>
              </g>
              <g>
                <rect class="cls-12" x="181.99" y="198.55" width="4.41" height="8.18"/>
                <rect class="cls-12" x="187.81" y="198.55" width="4.41" height="8.18"/>
              </g>
            </g>
          </g>
          <g>
            <g>
              <rect class="cls-12" x="175.97" y="126.54" width="4.41" height="8.18"/>
              <rect class="cls-12" x="175.97" y="137.78" width="4.41" height="8.18"/>
              <rect class="cls-12" x="175.97" y="160.26" width="4.41" height="8.18"/>
              <rect class="cls-12" x="175.97" y="149.02" width="4.41" height="8.18"/>
            </g>
            <g>
              <rect class="cls-12" x="175.97" y="176.06" width="4.41" height="8.18"/>
              <rect class="cls-12" x="175.97" y="187.31" width="4.41" height="8.18"/>
              <rect class="cls-12" x="175.97" y="209.79" width="4.41" height="8.18"/>
              <rect class="cls-12" x="175.97" y="198.55" width="4.41" height="8.18"/>
            </g>
          </g>
        </g>
        <g>
          <g>
            <g>
              <rect class="cls-12" x="199.95" y="126.54" width="2.15" height="7.81"/>
              <rect class="cls-12" x="202.79" y="126.54" width="2.15" height="7.81"/>
            </g>
            <g>
              <rect class="cls-12" x="199.95" y="137.27" width="2.15" height="7.81"/>
              <rect class="cls-12" x="202.79" y="137.27" width="2.15" height="7.81"/>
            </g>
            <g>
              <rect class="cls-12" x="199.95" y="158.74" width="2.15" height="7.81"/>
              <rect class="cls-12" x="202.79" y="158.74" width="2.15" height="7.81"/>
            </g>
            <g>
              <rect class="cls-12" x="199.95" y="148" width="2.15" height="7.81"/>
              <rect class="cls-12" x="202.79" y="148" width="2.15" height="7.81"/>
            </g>
          </g>
          <g>
            <g>
              <rect class="cls-12" x="199.95" y="173.83" width="2.15" height="7.81"/>
              <rect class="cls-12" x="202.79" y="173.83" width="2.15" height="7.81"/>
            </g>
            <g>
              <rect class="cls-12" x="199.95" y="184.56" width="2.15" height="7.81"/>
              <rect class="cls-12" x="202.79" y="184.56" width="2.15" height="7.81"/>
            </g>
            <g>
              <rect class="cls-12" x="199.95" y="206.03" width="2.15" height="7.81"/>
              <rect class="cls-12" x="202.79" y="206.03" width="2.15" height="7.81"/>
            </g>
            <g>
              <rect class="cls-12" x="199.95" y="195.29" width="2.15" height="7.81"/>
              <rect class="cls-12" x="202.79" y="195.29" width="2.15" height="7.81"/>
            </g>
          </g>
        </g>
      </g>
      <rect class="cls-8" x="29.57" y="266.26" width="10.54" height="45.78"/>
      <rect class="cls-8" x="68.87" y="266.26" width="10.54" height="45.78"/>
      <rect class="cls-8" x="108.16" y="266.26" width="10.54" height="45.78"/>
      <rect class="cls-8" x="147.46" y="266.26" width="10.54" height="45.78"/>
      <rect class="cls-8" x="186.76" y="266.26" width="10.54" height="45.78"/>
      <rect class="cls-8" x="343.94" y="266.26" width="10.54" height="45.78"/>
      <rect class="cls-8" x="383.23" y="266.26" width="10.54" height="45.78"/>
      <rect class="cls-8" x="422.53" y="266.26" width="10.54" height="45.78"/>
      <rect class="cls-8" x="461.82" y="266.26" width="10.54" height="45.78"/>
      <rect class="cls-8" x="501.12" y="266.26" width="10.54" height="45.78"/>
      <rect class="cls-8" x="226.05" y="266.26" width="10.54" height="45.78"/>
      <rect class="cls-8" x="265.35" y="266.26" width="10.54" height="45.78"/>
      <rect class="cls-8" x="304.64" y="266.26" width="10.54" height="45.78"/>
      <rect class="cls-30" x="268.81" y="7.39" width="9.93" height="547.54" transform="translate(554.93 7.39) rotate(90)"/>
      <rect class="cls-30" x="268.81" y="22.28" width="9.93" height="547.54" transform="translate(569.82 22.28) rotate(90)"/>
      <path class="cls-20" d="M269.8,251.29c2.36-3.36,5.98-8.08,10.63-7.64,3.78,.36,6.18,4.08,8.92,6.27,2.54,2.02,5.56,2.73,8.48,1.02s4.55-4.57,7.28-6.29c1.56-.98,3.28-1.12,4.85-.03,1.85,1.29,2.98,3.43,4.58,4.99,2.91,2.82,7.17,4.88,11.02,2.6,3.03-1.79,4.54-5.34,7.58-7.07,3.32-1.89,6.14,.82,8.27,3.14,2.34,2.56,4.99,5.73,8.84,5.4,5.61-.49,7.89-6.58,12.16-9.31,.81-.52,.06-1.82-.76-1.3-3.91,2.5-6.22,8.26-11.13,9.06-3.7,.61-6.24-2.96-8.44-5.33-2.03-2.18-4.52-4.3-7.71-3.71-3.53,.65-5.47,4.2-7.86,6.49-1.55,1.48-3.43,2.44-5.64,2.03-2.43-.46-4.51-2.16-6.12-3.95-2.41-2.66-4.84-6.54-9.02-5-2.99,1.1-4.89,4.02-7.26,5.98-1.26,1.04-2.75,1.89-4.43,1.8-1.77-.1-3.26-1.23-4.54-2.37-2.92-2.62-5.76-6.24-10.12-5.94-4.82,.33-8.32,4.75-10.88,8.39-.56,.79,.74,1.54,1.3,.76h0Z"/>
      <path class="cls-20" d="M427.19,256.34c2.36-3.36,5.98-8.08,10.63-7.64,3.78,.36,6.18,4.08,8.92,6.27,2.54,2.02,5.56,2.73,8.48,1.02s4.55-4.57,7.28-6.29c1.56-.98,3.28-1.12,4.85-.03,1.85,1.29,2.98,3.43,4.58,4.99,2.91,2.82,7.17,4.88,11.02,2.6,3.03-1.79,4.54-5.34,7.58-7.07,3.32-1.89,6.14,.82,8.27,3.14,2.34,2.56,4.99,5.73,8.84,5.4,5.61-.49,7.89-6.58,12.16-9.31,.81-.52,.06-1.82-.76-1.3-3.91,2.5-6.22,8.26-11.13,9.06-3.7,.61-6.24-2.96-8.44-5.33-2.03-2.18-4.52-4.3-7.71-3.71-3.53,.65-5.47,4.2-7.86,6.49-1.55,1.48-3.43,2.44-5.64,2.03-2.43-.46-4.51-2.16-6.12-3.95-2.41-2.66-4.84-6.54-9.02-5-2.99,1.1-4.89,4.02-7.26,5.98-1.26,1.04-2.75,1.89-4.43,1.8-1.77-.1-3.26-1.23-4.54-2.37-2.92-2.62-5.76-6.24-10.12-5.94-4.82,.33-8.32,4.75-10.88,8.39-.56,.79,.74,1.54,1.3,.76h0Z"/>
      <path class="cls-20" d="M15.51,261.38c2.36-3.36,5.98-8.08,10.63-7.64,3.78,.36,6.18,4.08,8.92,6.27,2.54,2.02,5.56,2.73,8.48,1.02s4.55-4.57,7.28-6.29c1.56-.98,3.28-1.12,4.85-.03,1.85,1.29,2.98,3.43,4.58,4.99,2.91,2.82,7.17,4.88,11.02,2.6,3.03-1.79,4.54-5.34,7.58-7.07,3.32-1.89,6.14,.82,8.27,3.14,2.34,2.56,4.99,5.73,8.84,5.4,5.61-.49,7.89-6.58,12.16-9.31,.81-.52,.06-1.82-.76-1.3-3.91,2.5-6.22,8.26-11.13,9.06-3.7,.61-6.24-2.96-8.44-5.33-2.03-2.18-4.52-4.3-7.71-3.71-3.53,.65-5.47,4.2-7.86,6.49-1.55,1.48-3.43,2.44-5.64,2.03-2.43-.46-4.51-2.16-6.12-3.95-2.41-2.66-4.84-6.54-9.02-5-2.99,1.1-4.89,4.02-7.26,5.98-1.26,1.04-2.75,1.89-4.43,1.8-1.77-.1-3.26-1.23-4.54-2.37-2.92-2.62-5.76-6.24-10.12-5.94-4.82,.33-8.32,4.75-10.88,8.39-.56,.79,.74,1.54,1.3,.76h0Z"/>
      <path class="cls-20" d="M138.85,260.03c2.36-3.36,5.98-8.08,10.63-7.64,3.78,.36,6.18,4.08,8.92,6.27,2.54,2.02,5.56,2.73,8.48,1.02s4.55-4.57,7.28-6.29c1.56-.98,3.28-1.12,4.85-.03,1.85,1.29,2.98,3.43,4.58,4.99,2.91,2.82,7.17,4.88,11.02,2.6,3.03-1.79,4.54-5.34,7.58-7.07,3.32-1.89,6.14,.82,8.27,3.14,2.34,2.56,4.99,5.73,8.84,5.4,5.61-.49,7.89-6.58,12.16-9.31,.81-.52,.06-1.82-.76-1.3-3.91,2.5-6.22,8.26-11.13,9.06-3.7,.61-6.24-2.96-8.44-5.33-2.03-2.18-4.52-4.3-7.71-3.71-3.53,.65-5.47,4.2-7.86,6.49-1.55,1.48-3.43,2.44-5.64,2.03-2.43-.46-4.51-2.16-6.12-3.95-2.41-2.66-4.84-6.54-9.02-5-2.99,1.1-4.89,4.02-7.26,5.98-1.26,1.04-2.75,1.89-4.43,1.8-1.77-.1-3.26-1.23-4.54-2.37-2.92-2.62-5.76-6.24-10.12-5.94-4.82,.33-8.32,4.75-10.88,8.39-.56,.79,.74,1.54,1.3,.76h0Z"/>
      <g>
        <circle class="cls-32" cx="86.85" cy="208.7" r="7.44"/>
        <rect class="cls-16" x="86.42" y="209.36" width=".86" height="13.55"/>
        <path class="cls-31" d="M83.64,204.8c.93-.9,2.31-1.35,3.64-1.32,.66,.02,.66-1.01,0-1.02-1.57-.04-3.22,.52-4.36,1.62-.47,.46,.25,1.18,.72,.72h0Z"/>
        <circle class="cls-31" cx="82.01" cy="205.76" r=".64"/>
      </g>
      <g>
        <path class="cls-9" d="M485.73,97.17h-6.11c0-1.69,1.37-3.05,3.05-3.05,.73,0,1.39,.25,1.92,.67,.7,.56,1.14,1.42,1.14,2.39Z"/>
        <path class="cls-13" d="M482.68,97.17h-10.84c0-1.72,.8-3.24,2.05-4.23,.92-.74,2.09-1.18,3.37-1.18,3,0,5.43,2.42,5.43,5.41Z"/>
        <path class="cls-29" d="M475.32,97.17h-7.02c0-1.94,1.57-3.51,3.51-3.51,.84,0,1.6,.29,2.2,.76,.8,.64,1.31,1.63,1.31,2.74Z"/>
      </g>
      <g>
        <path class="cls-9" d="M508.37,85.72h-10.83c0-3,2.43-5.41,5.41-5.41,1.29,0,2.47,.44,3.4,1.18,1.24,.99,2.02,2.51,2.02,4.23Z"/>
        <path class="cls-13" d="M502.96,85.72h-19.21c0-3.05,1.41-5.74,3.63-7.5,1.64-1.31,3.7-2.09,5.97-2.09,5.31,0,9.62,4.28,9.62,9.59Z"/>
        <path class="cls-29" d="M489.91,85.72h-12.43c0-3.44,2.79-6.22,6.22-6.22,1.49,0,2.84,.51,3.9,1.35,1.42,1.14,2.32,2.89,2.32,4.86Z"/>
      </g>
      <g>
        <path class="cls-29" d="M155.08,206.77h-9.73c0-2.69,2.18-4.86,4.86-4.86,1.16,0,2.22,.4,3.05,1.06,1.11,.89,1.81,2.26,1.81,3.8Z"/>
        <path class="cls-29" d="M162.3,206.77h-12.08c0-3.35,2.71-6.04,6.04-6.04,1.44,0,2.76,.49,3.79,1.32,1.38,1.11,2.25,2.81,2.25,4.72Z"/>
        <path class="cls-29" d="M171.46,206.77h-15.2c0-4.21,3.41-7.6,7.6-7.6,1.82,0,3.47,.62,4.77,1.66,1.74,1.4,2.83,3.53,2.83,5.94Z"/>
      </g>
      <g>
        <path class="cls-29" d="M442.64,105.45h-9.73c0-2.69,2.18-4.86,4.86-4.86,1.16,0,2.22,.4,3.05,1.06,1.11,.89,1.81,2.26,1.81,3.8Z"/>
        <path class="cls-29" d="M449.85,105.45h-12.08c0-3.35,2.71-6.04,6.04-6.04,1.44,0,2.76,.49,3.79,1.32,1.38,1.11,2.25,2.81,2.25,4.72Z"/>
        <path class="cls-29" d="M459.01,105.45h-15.2c0-4.21,3.41-7.6,7.6-7.6,1.82,0,3.47,.62,4.77,1.66,1.74,1.4,2.83,3.53,2.83,5.94Z"/>
      </g>
      <g>
        <path class="cls-19" d="M468.6,147.01h-7.83c0-1.45,1.76-2.62,3.92-2.62,.94,0,1.79,.21,2.46,.57,.89,.48,1.46,1.22,1.46,2.05Z"/>
        <path class="cls-19" d="M475.42,147.01h-7.83c0-1.45,1.76-2.62,3.92-2.62,.94,0,1.79,.21,2.46,.57,.89,.48,1.46,1.22,1.46,2.05Z"/>
      </g>
      <g>
        <path class="cls-19" d="M139.48,208.04h-7.83c0-1.45,1.76-2.62,3.92-2.62,.94,0,1.79,.21,2.46,.57,.89,.48,1.46,1.22,1.46,2.05Z"/>
        <path class="cls-19" d="M146.3,208.04h-7.83c0-1.45,1.76-2.62,3.92-2.62,.94,0,1.79,.21,2.46,.57,.89,.48,1.46,1.22,1.46,2.05Z"/>
      </g>
      <g>
        <path class="cls-19" d="M504.42,100.84h-7.83c0-1.45,1.76-2.62,3.92-2.62,.94,0,1.79,.21,2.46,.57,.89,.48,1.46,1.22,1.46,2.05Z"/>
        <path class="cls-19" d="M511.24,100.84h-7.83c0-1.45,1.76-2.62,3.92-2.62,.94,0,1.79,.21,2.46,.57,.89,.48,1.46,1.22,1.46,2.05Z"/>
        <path class="cls-19" d="M517.97,100.84h-7.83c0-1.45,1.76-2.62,3.92-2.62,.94,0,1.79,.21,2.46,.57,.89,.48,1.46,1.22,1.46,2.05Z"/>
      </g>
      <g>
        <path class="cls-19" d="M518.59,156.2h-7.83c0-1.45,1.76-2.62,3.92-2.62,.94,0,1.79,.21,2.46,.57,.89,.48,1.46,1.22,1.46,2.05Z"/>
        <path class="cls-19" d="M525.41,156.2h-7.83c0-1.45,1.76-2.62,3.92-2.62,.94,0,1.79,.21,2.46,.57,.89,.48,1.46,1.22,1.46,2.05Z"/>
        <path class="cls-19" d="M532.15,156.2h-7.83c0-1.45,1.76-2.62,3.92-2.62,.94,0,1.79,.21,2.46,.57,.89,.48,1.46,1.22,1.46,2.05Z"/>
      </g>
      <g>
        <path class="cls-19" d="M518.8,92.75h-7.83c0-1.45,1.76-2.62,3.92-2.62,.94,0,1.79,.21,2.46,.57,.89,.48,1.46,1.22,1.46,2.05Z"/>
        <path class="cls-19" d="M525.62,92.75h-7.83c0-1.45,1.76-2.62,3.92-2.62,.94,0,1.79,.21,2.46,.57,.89,.48,1.46,1.22,1.46,2.05Z"/>
        <path class="cls-19" d="M532.35,92.75h-7.83c0-1.45,1.76-2.62,3.92-2.62,.94,0,1.79,.21,2.46,.57,.89,.48,1.46,1.22,1.46,2.05Z"/>
      </g>
      <g>
        <path class="cls-19" d="M135.6,217.78h-7.83c0-1.45,1.76-2.62,3.92-2.62,.94,0,1.79,.21,2.46,.57,.89,.48,1.46,1.22,1.46,2.05Z"/>
        <path class="cls-19" d="M142.43,217.78h-7.83c0-1.45,1.76-2.62,3.92-2.62,.94,0,1.79,.21,2.46,.57,.89,.48,1.46,1.22,1.46,2.05Z"/>
        <path class="cls-19" d="M149.16,217.78h-7.83c0-1.45,1.76-2.62,3.92-2.62,.94,0,1.79,.21,2.46,.57,.89,.48,1.46,1.22,1.46,2.05Z"/>
      </g>
      <path class="cls-19" d="M492.94,132.04h-7.83c0-1.45,1.76-2.62,3.92-2.62,.94,0,1.79,.21,2.46,.57,.89,.48,1.46,1.22,1.46,2.05Z"/>
      <path class="cls-19" d="M484.75,119.98h-7.83c0-1.45,1.76-2.62,3.92-2.62,.94,0,1.79,.21,2.46,.57,.89,.48,1.46,1.22,1.46,2.05Z"/>
      <path class="cls-19" d="M446.47,90.2h-7.83c0-1.45,1.76-2.62,3.92-2.62,.94,0,1.79,.21,2.46,.57,.89,.48,1.46,1.22,1.46,2.05Z"/>
      <path class="cls-19" d="M434.68,82.96h-7.83c0-1.45,1.76-2.62,3.92-2.62,.94,0,1.79,.21,2.46,.57,.89,.48,1.46,1.22,1.46,2.05Z"/>
      <path class="cls-19" d="M144.13,226.37h-7.83c0-1.45,1.76-2.62,3.92-2.62,.94,0,1.79,.21,2.46,.57,.89,.48,1.46,1.22,1.46,2.05Z"/>
      <g>
        <polygon class="cls-13" points="461.32 53 466.12 92.62 470.92 132.23 461.32 132.23 451.72 132.23 456.52 92.62 461.32 53"/>
        <rect class="cls-15" x="460.26" y="124.52" width="2.11" height="18.4"/>
      </g>
      <g>
        <polygon class="cls-13" points="473.42 49.81 477.58 63.83 481.74 77.86 473.42 77.86 465.1 77.86 469.26 63.83 473.42 49.81"/>
        <rect class="cls-15" x="472.51" y="75.13" width="1.83" height="6.52"/>
      </g>
      <g>
        <polygon class="cls-13" points="520.64 49.81 524.8 63.83 528.96 77.86 520.64 77.86 512.32 77.86 516.48 63.83 520.64 49.81"/>
        <rect class="cls-15" x="519.73" y="75.13" width="1.83" height="6.52"/>
      </g>
      <g>
        <polygon class="cls-13" points="119.69 124.84 124.49 164.45 129.29 204.06 119.69 204.06 110.09 204.06 114.89 164.45 119.69 124.84"/>
        <rect class="cls-15" x="118.64" y="196.35" width="2.11" height="18.4"/>
      </g>
      <polyline class="cls-4" points="175.01 80.92 178.42 83.72 181.83 80.31"/>
      <polyline class="cls-4" points="327.78 90.35 331.19 93.14 334.6 89.73"/>
      <polyline class="cls-4" points="151.26 147.63 154.67 150.42 158.08 147.01"/>
      <g>
        <rect class="cls-17" x="451.36" y="203.66" width="33.47" height="26.81"/>
        <polygon class="cls-24" points="507.44 230.46 484.82 230.46 484.82 203.66 495.21 190.1 507.44 203.66 507.44 230.46"/>
        <path class="cls-8" d="M485.33,205.11h-36.7c-.78,0-1.2-.93-.67-1.51l12.08-13.5h37.49l-12.2,15.01Z"/>
        <path class="cls-8" d="M495.41,191.72l12.07,13.39h2.35c.42,0,.67-.48,.43-.83l-12.73-14.18"/>
        <rect class="cls-8" x="486.04" y="186.3" width="5.17" height="5.17"/>
        <path class="cls-27" d="M472.63,212.13h0c3.58,0,6.49,2.91,6.49,6.49v11.84h-12.99v-11.84c0-3.58,2.91-6.49,6.49-6.49Z"/>
        <rect class="cls-12" x="455.54" y="212.13" width="4.98" height="9.09"/>
        <rect class="cls-12" x="493.64" y="212.13" width="4.98" height="9.09"/>
      </g>
      <g>
        <rect class="cls-17" x="329.82" y="145.18" width="12.12" height="9.71"/>
        <polygon class="cls-24" points="350.14 154.89 341.95 154.89 341.95 145.18 345.71 140.27 350.14 145.18 350.14 154.89"/>
        <path class="cls-8" d="M342.13,145.7h-13.29c-.28,0-.43-.34-.24-.55l4.38-4.89h13.58l-4.42,5.44Z"/>
        <path class="cls-8" d="M345.78,140.85l4.37,4.85h.85c.15,0,.24-.17,.16-.3l-4.61-5.14"/>
        <rect class="cls-8" x="342.39" y="138.89" width="1.87" height="1.87"/>
        <path class="cls-27" d="M337.53,148.25h0c1.3,0,2.35,1.05,2.35,2.35v4.29h-4.7v-4.29c0-1.3,1.05-2.35,2.35-2.35Z"/>
        <rect class="cls-12" x="331.34" y="148.25" width="1.8" height="3.29"/>
        <rect class="cls-12" x="345.14" y="148.25" width="1.8" height="3.29"/>
      </g>
      <g>
        <g>
          <circle class="cls-27" cx="423.33" cy="98.87" r="7.44"/>
          <rect class="cls-16" x="422.9" y="97.53" width=".86" height="15.55"/>
        </g>
        <polyline class="cls-6" points="419.73 96.92 423.36 101.65 426.93 96.92"/>
        <polyline class="cls-2" points="421.18 101.65 423.35 104.47 425.48 101.65"/>
      </g>
      <g>
        <g>
          <circle class="cls-27" cx="446.47" cy="69.53" r="7.44"/>
          <rect class="cls-16" x="446.04" y="68.19" width=".86" height="15.55"/>
        </g>
        <polyline class="cls-6" points="442.87 67.58 446.5 72.31 450.07 67.58"/>
        <polyline class="cls-2" points="444.32 72.31 446.49 75.13 448.62 72.31"/>
      </g>
      <g>
        <g>
          <circle class="cls-27" cx="508.37" cy="133.88" r="7.44"/>
          <rect class="cls-16" x="507.94" y="132.54" width=".86" height="15.55"/>
        </g>
        <polyline class="cls-6" points="504.77 131.93 508.4 136.66 511.97 131.93"/>
        <polyline class="cls-2" points="506.22 136.66 508.39 139.48 510.52 136.66"/>
      </g>
      <g>
        <g>
          <circle class="cls-27" cx="358.34" cy="101.74" r="7.44"/>
          <rect class="cls-16" x="357.91" y="100.4" width=".86" height="15.55"/>
        </g>
        <polyline class="cls-6" points="354.74 99.78 358.37 104.52 361.94 99.78"/>
        <polyline class="cls-2" points="356.19 104.52 358.36 107.34 360.49 104.52"/>
      </g>
      <path class="cls-8" d="M447.71,219.24c2.96-2.86,7.66-2.86,10.62,0l6.09,5.89,11.39,11.02h-45.58l11.39-11.02,6.09-5.89Z"/>
      <g>
        <circle class="cls-34" cx="34.84" cy="280.95" r="2.22"/>
        <circle class="cls-34" cx="34.84" cy="296.05" r="2.22"/>
      </g>
      <g>
        <circle class="cls-34" cx="74.14" cy="280.95" r="2.22"/>
        <circle class="cls-34" cx="74.14" cy="296.05" r="2.22"/>
      </g>
      <g>
        <circle class="cls-34" cx="113.44" cy="280.95" r="2.22"/>
        <circle class="cls-34" cx="113.44" cy="296.05" r="2.22"/>
      </g>
      <g>
        <circle class="cls-34" cx="152.73" cy="280.95" r="2.22"/>
        <circle class="cls-34" cx="152.73" cy="296.05" r="2.22"/>
      </g>
      <g>
        <circle class="cls-34" cx="192.03" cy="280.95" r="2.22"/>
        <circle class="cls-34" cx="192.03" cy="296.05" r="2.22"/>
      </g>
      <g>
        <circle class="cls-34" cx="231.32" cy="280.95" r="2.22"/>
        <circle class="cls-34" cx="231.32" cy="296.05" r="2.22"/>
      </g>
      <g>
        <circle class="cls-34" cx="270.62" cy="280.95" r="2.22"/>
        <circle class="cls-34" cx="270.62" cy="296.05" r="2.22"/>
      </g>
      <g>
        <circle class="cls-34" cx="309.63" cy="280.95" r="2.22"/>
        <circle class="cls-34" cx="309.63" cy="296.05" r="2.22"/>
      </g>
      <g>
        <circle class="cls-34" cx="349.21" cy="280.95" r="2.22"/>
        <circle class="cls-34" cx="349.21" cy="296.05" r="2.22"/>
      </g>
      <g>
        <circle class="cls-34" cx="388.5" cy="280.95" r="2.22"/>
        <circle class="cls-34" cx="388.5" cy="296.05" r="2.22"/>
      </g>
      <g>
        <circle class="cls-34" cx="427.8" cy="280.95" r="2.22"/>
        <circle class="cls-34" cx="427.8" cy="296.05" r="2.22"/>
      </g>
      <g>
        <circle class="cls-34" cx="467.41" cy="280.95" r="2.22"/>
        <circle class="cls-34" cx="467.41" cy="296.05" r="2.22"/>
      </g>
      <g>
        <circle class="cls-34" cx="506.39" cy="280.95" r="2.22"/>
        <circle class="cls-34" cx="506.39" cy="296.05" r="2.22"/>
      </g>
      <g>
        <rect class="cls-24" x="276.33" y="75.51" width="40.25" height="6.97"/>
        <rect class="cls-33" x="276.33" y="79" width="40.25" height="4.72"/>
        <g>
          <polygon class="cls-24" points="315.5 75.5 277.57 75.5 282.89 66.29 310.18 66.29 315.5 75.5"/>
          <polygon class="cls-24" points="308.89 64.04 284.18 64.04 287.05 59.07 288.72 56.17 304.35 56.17 306.02 59.07 308.89 64.04"/>
          <polygon class="cls-24" points="303.05 53.93 290.02 53.93 296.54 42.64 303.05 53.93"/>
          <polygon class="cls-33" points="304.35 56.17 288.72 56.17 290.02 53.93 303.05 53.93 304.35 56.17"/>
          <polygon class="cls-33" points="310.18 66.29 282.89 66.29 284.18 64.04 308.89 64.04 310.18 66.29"/>
        </g>
      </g>
      <path class="cls-8" d="M149.33,228.48c2.57-2.48,6.64-2.48,9.21,0l5.28,5.11,9.89,9.56h-39.54l9.89-9.56,5.28-5.11Z"/>
      <path class="cls-8" d="M171.49,221.08c3.86-3.73,9.99-3.73,13.85,0l7.94,7.68,14.87,14.38h-59.47l14.87-14.38,7.94-7.68Z"/>
      <line class="cls-5" x1="226.37" y1="183.95" x2="226.37" y2="172.6"/>
      <line class="cls-5" x1="240.69" y1="183.95" x2="240.69" y2="172.6"/>
      <rect class="cls-17" x="213.34" y="159.55" width="42.5" height="16.79"/>
      <text class="cls-7" transform="translate(221.84 171.94)"><tspan x="0" y="0">SEO</tspan></text>
      <g>
        <line class="cls-1" x1="519.23" y1="279.51" x2="523.68" y2="279.51"/>
        <line class="cls-1" x1="524.45" y1="282.8" x2="528.9" y2="282.8"/>
      </g>
      <g>
        <line class="cls-1" x1="485.08" y1="294.4" x2="489.53" y2="294.4"/>
        <line class="cls-1" x1="490.3" y1="297.7" x2="494.75" y2="297.7"/>
      </g>
      <g>
        <line class="cls-1" x1="241.71" y1="279.3" x2="246.16" y2="279.3"/>
        <line class="cls-1" x1="246.93" y1="282.6" x2="251.38" y2="282.6"/>
      </g>
      <g>
        <line class="cls-1" x1="87.43" y1="279.3" x2="91.88" y2="279.3"/>
        <line class="cls-1" x1="92.65" y1="282.6" x2="97.1" y2="282.6"/>
      </g>
      <g>
        <line class="cls-1" x1="420.01" y1="282.6" x2="415.56" y2="282.6"/>
        <line class="cls-1" x1="414.79" y1="279.3" x2="410.34" y2="279.3"/>
      </g>
      <g>
        <line class="cls-1" x1="376.01" y1="282.6" x2="371.56" y2="282.6"/>
        <line class="cls-1" x1="370.8" y1="279.3" x2="366.35" y2="279.3"/>
      </g>
      <g>
        <line class="cls-1" x1="332.26" y1="297.7" x2="327.81" y2="297.7"/>
        <line class="cls-1" x1="327.04" y1="294.4" x2="322.59" y2="294.4"/>
      </g>
      <g>
        <line class="cls-1" x1="178.54" y1="297.7" x2="174.09" y2="297.7"/>
        <line class="cls-1" x1="173.32" y1="294.4" x2="168.87" y2="294.4"/>
      </g>
      <g>
        <line class="cls-1" x1="175.69" y1="282.6" x2="171.24" y2="282.6"/>
        <line class="cls-1" x1="170.47" y1="279.3" x2="166.02" y2="279.3"/>
      </g>
      <g>
        <line class="cls-1" x1="50.93" y1="297.7" x2="46.48" y2="297.7"/>
        <line class="cls-1" x1="45.72" y1="294.4" x2="41.27" y2="294.4"/>
      </g>
      <g>
        <line class="cls-1" x1="16.78" y1="282.6" x2="12.33" y2="282.6"/>
        <line class="cls-1" x1="11.56" y1="279.3" x2="7.11" y2="279.3"/>
      </g>
      <g>
        <rect class="cls-10" x="359.57" y="89.57" width="22.15" height="140.89"/>
        <rect class="cls-22" x="335.08" y="20.62" width="12.61" height="68.95"/>
        <rect class="cls-14" x="344.56" width="3.13" height="50.69"/>
        <rect class="cls-22" x="379.39" y="73.99" width="17.79" height="156.47"/>
        <polygon class="cls-24" points="350.32 72.01 335.08 76.81 335.08 230.46 354.87 230.46 350.32 72.01"/>
        <rect class="cls-10" x="397.18" y="73.99" width="4.52" height="156.47"/>
        <polygon class="cls-24" points="364.44 117.59 391.18 123.98 391.18 230.46 364.44 230.46 364.44 117.59"/>
        <g>
          <g>
            <g>
              <polygon class="cls-12" points="377.51 134.6 374.51 133.6 374.51 129.72 377.51 130.72 377.51 134.6"/>
              <polygon class="cls-12" points="377.51 139.93 374.51 138.93 374.51 135.05 377.51 136.05 377.51 139.93"/>
            </g>
            <g>
              <polygon class="cls-12" points="373.42 134.6 370.42 133.6 370.42 129.72 373.42 130.72 373.42 134.6"/>
              <polygon class="cls-12" points="373.42 139.93 370.42 138.93 370.42 135.05 373.42 136.05 373.42 139.93"/>
            </g>
            <g>
              <polygon class="cls-12" points="385.8 134.6 382.81 133.6 382.81 129.72 385.8 130.72 385.8 134.6"/>
              <polygon class="cls-12" points="385.8 139.93 382.81 138.93 382.81 135.05 385.8 136.05 385.8 139.93"/>
            </g>
            <g>
              <polygon class="cls-12" points="381.72 134.6 378.72 133.6 378.72 129.72 381.72 130.72 381.72 134.6"/>
              <polygon class="cls-12" points="381.72 139.93 378.72 138.93 378.72 135.05 381.72 136.05 381.72 139.93"/>
            </g>
          </g>
          <g>
            <g>
              <polygon class="cls-12" points="377.51 155.52 374.51 154.52 374.51 150.64 377.51 151.64 377.51 155.52"/>
              <polygon class="cls-12" points="377.51 160.85 374.51 159.85 374.51 155.97 377.51 156.97 377.51 160.85"/>
            </g>
            <g>
              <polygon class="cls-12" points="373.42 155.52 370.42 154.52 370.42 150.64 373.42 151.64 373.42 155.52"/>
              <polygon class="cls-12" points="373.42 160.85 370.42 159.85 370.42 155.97 373.42 156.97 373.42 160.85"/>
            </g>
            <g>
              <polygon class="cls-12" points="385.8 155.52 382.81 154.52 382.81 150.64 385.8 151.64 385.8 155.52"/>
              <polygon class="cls-12" points="385.8 160.85 382.81 159.85 382.81 155.97 385.8 156.97 385.8 160.85"/>
            </g>
            <g>
              <polygon class="cls-12" points="381.72 155.52 378.72 154.52 378.72 150.64 381.72 151.64 381.72 155.52"/>
              <polygon class="cls-12" points="381.72 160.85 378.72 159.85 378.72 155.97 381.72 156.97 381.72 160.85"/>
            </g>
          </g>
          <g>
            <g>
              <polygon class="cls-12" points="377.51 176.45 374.51 175.45 374.51 171.57 377.51 172.57 377.51 176.45"/>
              <polygon class="cls-12" points="377.51 181.77 374.51 180.77 374.51 176.9 377.51 177.9 377.51 181.77"/>
            </g>
            <g>
              <polygon class="cls-12" points="373.42 176.45 370.42 175.45 370.42 171.57 373.42 172.57 373.42 176.45"/>
              <polygon class="cls-12" points="373.42 181.77 370.42 180.77 370.42 176.9 373.42 177.9 373.42 181.77"/>
            </g>
            <g>
              <polygon class="cls-12" points="385.8 176.45 382.81 175.45 382.81 171.57 385.8 172.57 385.8 176.45"/>
              <polygon class="cls-12" points="385.8 181.77 382.81 180.77 382.81 176.9 385.8 177.9 385.8 181.77"/>
            </g>
            <g>
              <polygon class="cls-12" points="381.72 176.45 378.72 175.45 378.72 171.57 381.72 172.57 381.72 176.45"/>
              <polygon class="cls-12" points="381.72 181.77 378.72 180.77 378.72 176.9 381.72 177.9 381.72 181.77"/>
            </g>
          </g>
          <g>
            <g>
              <polygon class="cls-12" points="377.51 197.37 374.51 196.37 374.51 192.49 377.51 193.49 377.51 197.37"/>
              <polygon class="cls-12" points="377.51 202.7 374.51 201.7 374.51 197.82 377.51 198.82 377.51 202.7"/>
            </g>
            <g>
              <polygon class="cls-12" points="373.42 197.37 370.42 196.37 370.42 192.49 373.42 193.49 373.42 197.37"/>
              <polygon class="cls-12" points="373.42 202.7 370.42 201.7 370.42 197.82 373.42 198.82 373.42 202.7"/>
            </g>
            <g>
              <polygon class="cls-12" points="385.8 197.37 382.81 196.37 382.81 192.49 385.8 193.49 385.8 197.37"/>
              <polygon class="cls-12" points="385.8 202.7 382.81 201.7 382.81 197.82 385.8 198.82 385.8 202.7"/>
            </g>
            <g>
              <polygon class="cls-12" points="381.72 197.37 378.72 196.37 378.72 192.49 381.72 193.49 381.72 197.37"/>
              <polygon class="cls-12" points="381.72 202.7 378.72 201.7 378.72 197.82 381.72 198.82 381.72 202.7"/>
            </g>
          </g>
        </g>
        <polygon class="cls-17" points="364.44 230.46 345.31 230.46 345.31 64.16 364.44 61.16 364.44 230.46"/>
        <polygon class="cls-22" points="357.53 230.46 352.3 230.46 352.3 63.06 357.53 62.24 357.53 230.46"/>
      </g>
      <g>
        <path class="cls-13" d="M338.25,230.46h-10.83c0-3,2.43-5.41,5.41-5.41,1.29,0,2.47,.44,3.4,1.18,1.24,.99,2.02,2.51,2.02,4.23Z"/>
        <path class="cls-13" d="M352.91,230.46h-19.21c0-3.05,1.41-5.74,3.63-7.5,1.64-1.31,3.7-2.09,5.97-2.09,5.31,0,9.62,4.28,9.62,9.59Z"/>
      </g>
      <g>
        <path class="cls-9" d="M415.17,230.46h-10.83c0-3,2.43-5.41,5.41-5.41,1.29,0,2.47,.44,3.4,1.18,1.24,.99,2.02,2.51,2.02,4.23Z"/>
        <path class="cls-13" d="M409.76,230.46h-19.21c0-3.05,1.41-5.74,3.63-7.5,1.64-1.31,3.7-2.09,5.97-2.09,5.31,0,9.62,4.28,9.62,9.59Z"/>
        <path class="cls-29" d="M396.71,230.46h-12.43c0-3.44,2.79-6.22,6.22-6.22,1.49,0,2.84,.51,3.9,1.35,1.42,1.14,2.32,2.89,2.32,4.86Z"/>
      </g>
    </g>
  </g>
</svg>